# Exported from Wings 3D 1.0.2
mtllib toothP.mtl
o cube1
#161 vertices, 170 faces
v -0.64023996 -9.27293507 0.37068506
v 3.3786806e-2 -9.27297254 0.37068506
v -0.64023996 -9.27293507 -0.40017942
v 3.3786806e-2 -9.27297254 -0.40017942
v -1.07317742 0.25484378 1.21524210
v -0.30322658 -9.27295380 0.47939671
v -0.73529502 -9.27292978 -1.4747181e-2
v -1.8455506e-2 3.76379863 0.96913579
v -1.99403384 3.76391094 -1.4747181e-2
v 1.03567936 0.23838275 1.21524210
v 1.98525203 3.76368632 -1.4747181e-2
v 0.12884186 -9.27297783 -1.4747181e-2
v -1.07317742 0.25484378 -1.24473646
v -0.30322658 -9.27295380 -0.50889108
v -1.8455506e-2 3.76379863 -0.50474892
v 1.03567936 0.23838275 -1.24473646
v -1.8778004e-2 -7.0848961e-3 1.74222708
v 1.45873255 0.66676768 -1.4747181e-2
v -1.8778004e-2 -7.0848961e-3 -1.77172144
v -1.49616884 0.66236412 -1.4747181e-2
v -0.89302369 -5.10382388 1.04845024
v -0.89302369 -5.10382388 -1.07794460
v 0.85452550 -5.10397165 1.04845024
v 0.85452550 -5.10397165 -1.07794460
v -1.9249093e-2 -5.10389776 -1.33881490
v -1.06453790 -5.10380937 -1.4747181e-2
v -1.9249093e-2 -5.10389776 1.30932054
v 1.02603972 -5.10398615 -1.4747181e-2
v 1.28951390 1.73595217 1.30600541
v 1.29881833 1.73595899 -1.36578411
v -1.43559477 1.73612086 1.30600541
v -1.28921716 1.73611404 -1.20679133
v -1.8640413e-2 1.73603651 1.87032844
v 1.82938538 1.78474329 -1.4747181e-2
v -1.8640413e-2 1.73603651 -1.73153529
v -1.83729281 1.88405080 -1.4747181e-2
v -1.8329486e-2 5.09185411 -2.5392845e-2
v -1.8351843e-2 4.87312878 -0.57663387
v -1.95050078 3.76390456 0.51191617
v 1.91358977 3.76369270 0.48920292
v 1.48003377 2.67254883 1.11732456
v 1.72993778 2.67255269 -0.72612837
v -1.8550614e-2 2.67264059 1.54005639
v 1.93176819 2.67253314 -1.4747181e-2
v -1.57486246 2.67273234 1.11732456
v -1.60581066 2.67272848 -0.72612837
v -1.8550614e-2 2.56150714 -0.82272317
v -1.93715737 2.67274803 -1.4747181e-2
v -1.36670402 0.46465394 0.65067702
v -1.36670402 0.46465394 -0.68017138
v -1.63446640 1.77028089 -0.63600929
v -1.69285626 1.77028089 0.60651493
v -1.80887885 2.67274243 0.64430444
v 1.32924748 0.48784364 0.65067702
v 1.32924748 0.48784364 -0.68017138
v 1.59343506 1.77008225 0.60651493
v 1.67929190 1.77008225 -0.63600929
v 1.82986556 2.67253875 0.59130685
v -2.07933559 4.95037069 -0.34030383
v 2.04266811 4.95799378 -0.34030383
v 1.33218094 3.76372599 -0.59332891
v -1.36909195 3.76387127 -0.59332891
v -2.00616036 4.93939231 -2.5392845e-2
v 1.96947360 4.72829007 -0.57663387
v 1.96949595 4.94701540 -2.5392845e-2
v -2.00618271 4.72066698 -0.57663387
v -0.42514746 -9.58861591 -1.4747181e-2
v -0.47173327 -9.27294444 0.42504089
v -0.68776749 -9.27293242 0.17796894
v -1.02401698 3.76383845 0.91136235
v 8.1314334e-2 -9.27297518 0.17796894
v -0.47173327 -9.27294444 -0.45453525
v -0.75878258 3.76383845 -0.49746174
v -0.13471989 -9.27296317 0.42504089
v -0.68776749 -9.27293242 -0.20746330
v 0.98710946 3.76375881 0.91136235
v 8.1314334e-2 -9.27297518 -0.20746330
v -0.13471989 -9.27296317 -0.45453525
v 0.72187157 3.76375881 -0.49746174
v -0.58816818 9.1780466e-3 -1.62770749
v 0.55061449 9.1003463e-3 -1.62770749
v -0.58816818 9.1780466e-3 1.59821313
v 0.55061449 9.1003463e-3 1.59821313
v -0.45613639 -5.10386082 -1.20837975
v -0.97878080 -5.10381663 0.51685153
v 0.41763821 -5.10393470 1.17888539
v 0.94028261 -5.10397890 -0.54634589
v -0.97878080 -5.10381663 -0.54634589
v 0.41763821 -5.10393470 -1.20837975
v 0.94028261 -5.10397890 0.51685153
v -0.45613639 -5.10386082 1.17888539
v -0.89419864 1.73608352 1.70114571
v 0.78023443 1.73598950 -1.56235256
v -0.81751526 1.73608352 -1.56235256
v 0.85690946 1.73598950 1.70114571
v -0.94455599 2.67268620 1.43609348
v -0.76453000 2.67268071 -0.85925624
v 0.90745216 2.67259497 1.43609348
v 0.72742878 2.67260046 -0.85925624
v 0.67452793 5.09185411 -2.5392845e-2
v -0.71121345 4.87312878 -0.57663387
v 0.67450558 4.87312878 -0.57663387
v -0.71119109 5.09185411 -2.5392845e-2
v -1.26623159 1.09680117 1.31943812
v -1.08761439 1.00419116 -1.57610209
v -1.8698088e-2 1.06573473 -2.01304870
v -1.66130915 1.35390461 -1.4747181e-2
v 1.08015662 1.09666084 1.43300439
v 1.09709083 1.00404843 -1.64424186
v -1.8698088e-2 1.06573473 1.98355433
v -1.54307319 1.22663459 -0.63756735
v -1.54307319 1.22663459 0.60807298
v 0.65247915 1.06569180 -1.89663783
v -0.68987533 1.06577766 1.86714347
v -0.68987533 1.06577766 -1.89663783
v 0.65247915 1.06569180 1.86714347
v -0.71119263 5.10283249 -0.34030383
v -1.8331028e-2 5.10283249 -0.34030383
v 0.67452639 5.10283249 -0.34030383
v -1.38824304 5.10283249 -0.34030383
v 1.35157618 5.10283249 -0.34030383
v -1.35869808 4.87312878 -0.57663387
v -1.35867572 5.09185411 -2.5392845e-2
v 1.32198959 4.87312878 -0.57663387
v 1.32201194 5.09185411 -2.5392845e-2
v 1.75753040 3.76369914 0.72243287
v -1.79444142 3.76389812 0.72243287
v 1.80432734 3.76370059 -0.49722178
v -1.84123835 3.76389667 -0.49722178
v 1.22257087 2.67257383 -0.78893014
v -1.25967210 2.67270734 -0.78893014
v -0.81273792 -7.29576101 0.81141938
v -0.81273792 -7.29576101 -0.84091374
v -0.12258877 -7.29580732 -1.05009436
v -0.96468240 -7.29575112 -1.4747181e-2
v 0.56756038 -7.29585363 0.81141938
v 0.56756038 -7.29585363 -0.84091374
v -0.12258877 -7.29580732 1.02059999
v 0.71950486 -7.29586352 -1.4747181e-2
v -0.46766335 -7.29578416 -0.94550405
v -0.88871016 -7.29575606 0.39833610
v 0.22248580 -7.29583048 0.91600968
v 0.64353262 -7.29585858 -0.42783046
v -0.88871016 -7.29575606 -0.42783046
v 0.22248580 -7.29583048 -0.94550405
v 0.64353262 -7.29585858 0.39833610
v -0.46766335 -7.29578416 0.91600968
v -1.8595514e-2 2.20433855 -1.28470032
v -1.8392496e-2 4.32286700 0.60815100
v 0.99011424 4.32284709 0.55655103
v -1.02689387 4.32288691 0.55655103
v -1.8403674e-2 4.31846370 -0.54069140
v -0.73499802 4.31848361 -0.53704780
v 0.69818858 4.31844379 -0.53704780
v 1.32708526 4.31842738 -0.58498139
v -1.36389502 4.31850002 -0.58498139
v 0.59236701 -2.13535030 -2.1903935e-2
v -0.59743189 -2.13119713 -2.1887988e-2
v -0.67217060 0.10356722 -1.6315591e-2
v 0.67723548 9.8856918e-2 -1.6333677e-2
v 2.5324381e-3 -1.3449718e-2 -1.6324634e-2
vn -0.63208072 -0.54686816 0.54900745
vn 0.54737303 -0.66679924 0.50572872
vn -0.63208072 -0.54686816 -0.54900745
vn 0.54737303 -0.66679924 -0.50572872
vn -6.2588014e-3 -0.59672997 0.80241770
vn -0.90092320 -0.43397857 -7.4613812e-18
vn 1.8085503e-5 0.49352558 0.86973128
vn -0.99237879 -8.5741848e-2 -8.8502385e-2
vn 0.99617013 -5.5384558e-2 -6.7658074e-2
vn 0.78022480 -0.62549921 6.8111966e-17
vn -6.2588014e-3 -0.59672997 -0.80241770
vn 5.5638383e-6 9.5220891e-2 -0.99545617
vn -0.76045314 -8.0117840e-2 0.64443165
vn -0.76045314 -8.0117840e-2 -0.64443165
vn 0.75766436 -0.11325731 0.64274218
vn 0.75766436 -0.11325731 -0.64274218
vn -2.5885884e-4 -0.10878342 -0.99406544
vn -0.99813792 -6.0997513e-2 7.0379453e-18
vn -2.5885884e-4 -0.10878342 0.99406544
vn 0.99420299 -0.10751936 2.1123315e-17
vn 0.78340774 -7.0350689e-2 0.61751364
vn 0.68408027 0.14744365 -0.71434904
vn -0.79027095 -7.0351174e-2 0.60870562
vn -0.72788764 0.13770049 -0.67172774
vn 1.3578723e-5 0.23896246 0.97102881
vn 0.97845753 -0.20558029 1.8910201e-2
vn 3.1237273e-5 0.52506120 -0.85106447
vn -0.98125543 -0.18359792 -5.8562591e-2
vn 4.0748322e-6 0.89317362 0.44971201
vn -5.2503267e-7 0.35773964 -0.93382137
vn -0.93632527 2.9424566e-2 0.34989883
vn 0.92949052 3.7753013e-2 0.36690883
vn 0.69233724 7.3490798e-2 0.71782188
vn 0.74273736 0.11422324 -0.65976834
vn 1.8082106e-5 0.37437992 0.92727540
vn 0.99517031 -9.0736392e-2 -3.7456258e-2
vn -0.70561282 9.7401251e-2 0.70187146
vn -0.73358466 8.2257775e-2 -0.67460152
vn 2.4688379e-5 0.47309092 -0.88101361
vn -0.99027064 -9.1633705e-2 -0.10472498
vn -0.91566116 -9.8574825e-2 -0.38967632
vn -0.94605774 -0.19022714 0.26227540
vn -0.94779718 -8.3429256e-2 0.30776627
vn 0.92038747 -0.19072095 0.34133917
vn 0.93387916 -0.16622875 -0.31660342
vn 0.92610919 -0.10054903 0.36360920
vn -0.81176741 0.52232362 -0.26117370
vn 0.80238662 0.53607891 -0.26228820
vn -0.57103456 0.55782336 0.60228949
vn 0.37243650 0.15277384 -0.91539675
vn 0.57256437 0.55659284 0.60197546
vn -0.38084514 0.15122649 -0.91218832
vn -7.1482461e-2 -0.99744186 1.7249549e-17
vn -0.26679285 -0.44741929 0.85360269
vn -0.92440640 -0.32541955 0.19893449
vn -0.15951759 0.46025688 0.87333713
vn 0.84083773 -0.51087467 0.17888261
vn -0.26679285 -0.44741929 -0.85360269
vn 5.4863841e-2 0.11919361 -0.99135405
vn 0.25842047 -0.49834555 0.82756908
vn -0.92440640 -0.32541955 -0.19893449
vn 0.16280042 0.45747421 0.87419298
vn 0.84083773 -0.51087467 -0.17888261
vn 0.25842047 -0.49834555 -0.82756908
vn -5.4850715e-2 0.11920458 -0.99135345
vn -0.33533967 -9.3548055e-2 -0.93744123
vn -0.97704948 -5.7662569e-2 0.20505935
vn 0.33472817 -0.10696361 0.93622425
vn 0.97341467 -0.10364859 -0.20425684
vn -0.97704948 -5.7662569e-2 -0.20505935
vn 0.33472817 -0.10696361 -0.93622425
vn 0.97341467 -0.10364859 0.20425684
vn -0.33533967 -9.3548055e-2 0.93744123
vn -0.38399003 0.14101367 0.91250578
vn 0.20751192 0.49496094 -0.84377276
vn -0.29328484 0.46480346 -0.83542908
vn 0.41564145 0.13953961 0.89876075
vn -0.26904699 0.31247529 0.91102849
vn 0.28978267 0.30377448 0.90760513
vn 6.5492263e-3 0.89033905 0.45525101
vn 9.5837636e-3 0.36687139 -0.93022231
vn -9.5844896e-3 0.36687412 -0.93022122
vn -6.5451100e-3 0.89034339 0.45524259
vn -0.78601398 -0.21174811 0.58081388
vn -0.76247308 -0.12114116 -0.63557818
vn 4.8262713e-6 8.6019602e-2 -0.99629344
vn -0.96930248 -0.24547322 -1.3985955e-2
vn 0.78601022 -0.17252505 0.59365229
vn 0.72474564 -0.17485897 -0.66645938
vn -2.5684417e-6 -3.2780274e-2 0.99946258
vn -0.93681432 -0.18187880 -0.29882944
vn -0.94015751 -0.24547913 0.23631302
vn 0.32944973 4.6911434e-2 -0.94300699
vn -0.44754835 -0.10125569 0.88850873
vn -0.42020214 3.8961397e-2 -0.90659372
vn 0.47065886 -9.5535049e-2 0.87712786
vn 0.0000000e+0 0.93298883 -0.35990533
vn 0.0000000e+0 0.93298883 -0.35990533
vn 0.0000000e+0 0.93298883 -0.35990533
vn -0.10409379 0.92847966 -0.35649685
vn 9.9063875e-2 0.92895330 -0.35669611
vn -3.3554051e-2 0.37898391 -0.92479474
vn -9.8407412e-2 0.87265758 0.47831447
vn 3.1460290e-2 0.37939646 -0.92469918
vn 9.3734520e-2 0.87360265 0.47752722
vn 0.58585517 0.27372929 0.76278830
vn -0.58596360 0.28288514 0.75935673
vn 0.64731668 -1.7210436e-2 -0.76202685
vn -0.64428601 -4.2243388e-2 -0.76361707
vn 0.15821587 0.37475175 -0.91352551
vn -0.22132868 0.33468673 -0.91596856
vn -0.73890390 -0.15217821 0.65640142
vn -0.73890390 -0.15217821 -0.65640142
vn -1.2562416e-3 -0.19835430 -0.98012958
vn -0.99650240 -8.3564191e-2 -2.1192273e-17
vn 0.72141366 -0.24846392 0.64639617
vn 0.72141366 -0.24846392 -0.64639617
vn -1.2562416e-3 -0.19835430 0.98012958
vn 0.97643088 -0.21583032 5.6595262e-17
vn -0.28738280 -0.17174303 -0.94229266
vn -0.97930016 -8.5322650e-2 0.18355176
vn 0.28519228 -0.20964088 0.93526256
vn 0.95987764 -0.21527177 -0.17970250
vn -0.97930016 -8.5322650e-2 -0.18355176
vn 0.28519228 -0.20964088 -0.93526256
vn 0.95987764 -0.21527177 0.17970250
vn -0.28738280 -0.17174303 0.94229266
vn 1.1824409e-5 0.58184864 0.81329709
vn 7.7135454e-2 0.56938830 0.81844187
vn -7.8596405e-2 0.56929418 0.81836834
vn -1.8626184e-6 -6.7820392e-2 -0.99769755
vn 3.5713637e-2 -4.8998036e-2 -0.99816017
vn -3.5716339e-2 -4.8988844e-2 -0.99816053
vn -8.7634530e-3 -2.5951055e-2 -0.99962480
vn 8.7925293e-3 -2.6021472e-2 -0.99962272
vn 0.0000000e+0 0.0000000e+0 0.0000000e+0
vn 0.0000000e+0 0.0000000e+0 0.0000000e+0
vn 0.0000000e+0 0.0000000e+0 0.0000000e+0
vn 0.0000000e+0 0.0000000e+0 0.0000000e+0
vn 0.0000000e+0 0.0000000e+0 0.0000000e+0
vn -0.77266336 -6.4790197e-2 0.63150104
vn -0.77266336 -6.4790197e-2 0.63150104
vn -0.81059292 -0.23740823 0.53532835
vn -0.81059292 -0.23740823 0.53532835
vn 0.77297028 -6.4993554e-2 0.63110442
vn 0.77297028 -6.4993554e-2 0.63110442
vn 0.80016539 -0.18612875 0.57016790
vn 0.80016539 -0.18612875 0.57016790
vn -0.77266336 -6.4790197e-2 -0.63150104
vn -0.77266336 -6.4790197e-2 -0.63150104
vn -0.80384509 -0.25231978 -0.53867226
vn -0.80384509 -0.25231978 -0.53867226
vn 0.77297028 -6.4993554e-2 -0.63110442
vn 0.77297028 -6.4993554e-2 -0.63110442
vn 0.80240362 -0.32538734 -0.50027143
vn 0.80240362 -0.32538734 -0.50027143
vn -6.5467147e-6 -8.6701851e-2 0.99623430
vn -6.5467147e-6 -8.6701851e-2 0.99623430
vn -1.6043966e-5 -0.24236565 0.97018498
vn -1.6043966e-5 -0.24236565 0.97018498
vn 0.99725116 -7.4095398e-2 2.8145666e-17
vn 0.99725116 -7.4095398e-2 2.8145666e-17
vn 0.96274954 -0.26819997 3.4381751e-2
vn 0.96274954 -0.26819997 3.4381751e-2
vn -6.5467147e-6 -8.6701851e-2 -0.99623430
vn -6.5467147e-6 -8.6701851e-2 -0.99623430
vn -1.6043966e-5 -0.24236565 -0.97018498
vn -1.6043966e-5 -0.24236565 -0.97018498
vn -0.99725237 -7.4079100e-2 2.8140261e-17
vn -0.99725237 -7.4079100e-2 2.8140261e-17
vn -0.97433643 -0.22509668 0.0000000e+0
vn -0.97433643 -0.22509668 0.0000000e+0
vn -0.96820027 -6.5700890e-2 0.24139516
vn -0.96820027 -6.5700890e-2 0.24139516
vn -0.94441086 -0.22457970 0.24010849
vn -0.94441086 -0.22457970 0.24010849
vn -0.96820027 -6.5700890e-2 -0.24139516
vn -0.96820027 -6.5700890e-2 -0.24139516
vn -0.94177327 -0.20799145 -0.26420194
vn -0.94177327 -0.20799145 -0.26420194
vn 0.96829677 -6.5754210e-2 0.24099325
vn 0.96829677 -6.5754210e-2 0.24099325
vn 0.91722963 -0.19367254 0.34811026
vn 0.91722963 -0.19367254 0.34811026
vn 0.91722963 -0.19367254 0.34811026
vn 0.96829677 -6.5754210e-2 -0.24099325
vn 0.96829677 -6.5754210e-2 -0.24099325
vn 0.92210994 -0.24303214 -0.30107913
vn 0.92210994 -0.24303214 -0.30107913
vn 0.92210994 -0.24303214 -0.30107913
vn 3.6258715e-2 0.11392981 -0.99282693
vn 3.6258715e-2 0.11392981 -0.99282693
vn 3.6258715e-2 0.11392981 -0.99282693
vn 3.6258715e-2 0.11392981 -0.99282693
vn 3.6258715e-2 0.11392981 -0.99282693
vn -4.2437311e-2 0.11049777 -0.99296995
vn -4.2437311e-2 0.11049777 -0.99296995
vn -4.2437311e-2 0.11049777 -0.99296995
vn -4.2437311e-2 0.11049777 -0.99296995
vn -4.2437311e-2 0.11049777 -0.99296995
vn -0.38405155 -7.4037098e-2 -0.92033848
vn -0.38405155 -7.4037098e-2 -0.92033848
vn -0.50342620 -0.27367598 -0.81955080
vn -0.50342620 -0.27367598 -0.81955080
vn -0.50342620 -0.27367598 -0.81955080
vn 0.38359416 -7.4153984e-2 -0.92051980
vn 0.38359416 -7.4153984e-2 -0.92051980
vn 0.45674072 -0.30269327 -0.83651939
vn 0.45674072 -0.30269327 -0.83651939
vn 0.45674072 -0.30269327 -0.83651939
vn -0.38405155 -7.4037098e-2 0.92033848
vn -0.38405155 -7.4037098e-2 0.92033848
vn -0.53441897 -0.24822333 0.80794897
vn -0.53441897 -0.24822333 0.80794897
vn -0.53441897 -0.24822333 0.80794897
vn 0.38359416 -7.4153984e-2 0.92051980
vn 0.38359416 -7.4153984e-2 0.92051980
vn 0.54119187 -0.23868581 0.80631287
vn 0.54119187 -0.23868581 0.80631287
vn 0.54119187 -0.23868581 0.80631287
vn 0.13786383 0.57186912 -0.80867748
vn -0.12172968 0.47810351 -0.86982695
vn -0.12172968 0.47810351 -0.86982695
vn 0.13786383 0.57186912 -0.80867748
vn -0.12172968 0.47810351 -0.86982695
vn 0.12178325 0.47808141 -0.86983160
vn -0.13780469 0.57189201 -0.80867138
vn 0.12178325 0.47808141 -0.86983160
vn -0.13780469 0.57189201 -0.80867138
vn 0.12178325 0.47808141 -0.86983160
vn 4.1058432e-5 0.79113066 -0.61164719
vn 4.1058432e-5 0.79113066 -0.61164719
vn 3.6766020e-5 0.63574116 -0.77190231
vn 3.6766020e-5 0.63574116 -0.77190231
g cube1_Buildup
usemtl Buildup
f 157//136 160//139 161//140 159//138 158//137
g cube1_Cementum
usemtl Cementum
f 1//1 67//53 6//5 68//54
f 1//1 68//54 147//127 132//112
f 2//2 67//53 12//10 71//57
f 2//2 136//116 142//122 74//60
f 3//3 75//61 144//124 133//113
f 4//4 137//117 143//123 77//63
f 5//142 49//174 85//67 21//13
f 6//5 67//53 2//2 74//60
f 6//5 138//118 147//127 68//54
f 7//6 69//55 141//121 135//115
f 7//6 135//115 144//124 75//61
f 10//146 83//217 86//68 23//15
f 12//10 67//53 4//4 77//63
f 12//10 139//119 146//126 71//57
f 13//150 80//201 84//66 22//14
f 14//11 72//58 140//120 134//114
f 14//11 134//114 145//125 78//64
f 16//153 55//186 87//69 24//16
f 17//158 82//212 91//73 27//19
f 18//162 54//182 90//72 28//20
f 19//166 25//17 84//66 80//202
f 20//169 26//18 85//67 49//173
f 21//13 91//73 82//211 5//141
f 21//13 132//112 147//127 91//73
f 22//14 88//70 50//177 13//149
f 22//14 133//113 144//124 88//70
f 23//15 86//68 142//122 136//116
f 23//15 90//72 54//181 10//145
f 24//16 87//69 143//123 137//117
f 24//16 89//71 81//207 16//154
f 25//17 134//114 140//120 84//66
f 26//18 135//115 141//121 85//67
f 27//19 86//68 83//216 17//157
f 27//19 91//73 147//127 138//118
f 28//20 87//69 55//187 18//161
f 28//20 90//72 146//126 139//119
f 50//178 88//70 26//18 20//170
f 69//55 7//6 67//53 1//1
f 71//57 146//126 136//116 2//2
f 72//58 14//11 67//53 3//3
f 74//60 142//122 138//118 6//5
f 75//61 3//3 67//53 7//6
f 77//63 143//123 139//119 12//10
f 78//64 4//4 67//53 14//11
f 78//64 145//125 137//117 4//4
f 81//206 89//71 25//17 19//165
f 84//66 140//120 133//113 22//14
f 85//67 141//121 132//112 21//13
f 88//70 144//124 135//115 26//18
f 89//71 145//125 134//114 25//17
f 132//112 141//121 69//55 1//1
f 133//113 140//120 72//58 3//3
f 136//116 146//126 90//72 23//15
f 137//117 145//125 89//71 24//16
f 138//118 142//122 86//68 27//19
f 139//119 143//123 87//69 28//20
g cube1_D
usemtl D
f 9//8 39//31 63//49 59//47
f 9//8 48//40 53//43 39//31
f 9//8 129//109 46//38 48//40
f 31//23 92//74 96//78 45//37
f 32//24 51//41 46//38
f 36//28 52//42 53//43 48//40
f 39//31 127//107 63//49
f 45//37 53//43 52//42 31//23
f 46//38 131//111 94//76 32//24
f 48//40 46//38 51//41 36//28
f 53//43 45//37 127//107 39//31
f 59//47 66//52 129//109 9//8
f 62//199 131//111 46//38 129//109
f 96//78 70//56 127//107 45//37
f 97//223 94//76 131//111
f 129//109 66//52 156//135 62//198
f 131//111 62//200 97//222
f 151//130 63//49 127//107 70//56
g cube1_Enamel2
usemtl Enamel2
f 5//143 82//213 104//84
f 10//147 108//88 83//219
f 13//151 50//179 111//91 105//85
f 16//155 109//89 55//189
f 18//164 34//26 56//44 54//183
f 19//167 80//203 115//95 106//86
f 20//171 49//175 112//92 107//87
f 30//22 57//45 55//190 109//89
f 35//27 106//86 115//95 94//76
f 36//28 107//87 112//92 52//42
f 51//41 32//24 105//85 111//91
f 51//41 111//91 107//87 36//28
f 54//185 108//88 10//148
f 55//188 57//45 34//26 18//163
f 80//204 105//85 115//95
f 81//210 109//89 16//156
f 93//75 113//93 106//86 35//27
f 94//76 115//95 105//85 32//24
f 104//84 112//92 49//176 5//144
f 105//85 80//205 13//152
f 106//86 113//93 81//209 19//168
f 107//87 111//91 50//180 20//172
f 108//88 54//184 56//44 29//21
f 109//89 113//93 93//75 30//22
f 112//92 104//84 31//23 52//42
f 113//93 109//89 81//208
g cube1_F
usemtl F
f 8//7 43//35 98//79 76//62
f 8//7 70//56 96//78 43//35
f 8//7 149//128 151//130 70//56
f 33//25 43//35 96//78 92//74
f 33//25 95//77 98//79 43//35
f 76//62 150//129 149//128 8//7
g cube1_I
usemtl I
f 37//29 103//83 151//130 149//128
f 37//29 118//98 117//97 103//83
f 38//30 102//82 154//133 152//131
f 38//30 118//98 119//99 102//82
f 59//47 120//100 122//102 66//52
f 60//48 121//101 125//105 65//51
f 63//49 123//103 120//100 59//47
f 63//49 151//130 123//103
f 64//50 124//104 121//101 60//48
f 64//50 155//134 124//104
f 100//80 119//99 118//98 37//29
f 100//80 125//105 121//101 119//99
f 100//80 150//129 125//105
f 101//81 117//97 118//98 38//30
f 101//81 122//102 120//100 117//97
f 101//81 153//132 156//135 122//102
f 117//97 120//100 123//103 103//83
f 119//99 121//101 124//104 102//82
f 122//102 156//135 66//52
f 123//103 151//130 103//83
f 124//104 155//134 154//133 102//82
f 125//105 150//129 65//51
f 149//128 150//129 100//80 37//29
f 152//131 153//132 101//81 38//30
g cube1_L
usemtl L
f 15//12 152//131 154//133 79//65
f 35//27 148//234 99//230 93//75
f 47//39 73//59 15//12
f 47//39 148//232 97//224
f 61//192 99//227 47//39 79//65
f 62//197 156//135 153//132 73//59
f 73//59 47//39 97//221 62//196
f 73//59 153//132 152//131 15//12
f 79//65 47//39 15//12
f 79//65 154//133 155//134 61//193
f 94//76 97//225 148//233 35//27
f 99//229 148//231 47//39
g cube1_M
usemtl M
f 11//9 40//32 58//46 44//36
f 11//9 60//48 65//51 40//32
f 11//9 128//108 64//50 60//48
f 29//21 41//33 98//79 95//77
f 29//21 56//44 58//46 41//33
f 34//26 57//45 42//34 44//36
f 40//32 126//106 41//33 58//46
f 41//33 126//106 76//62 98//79
f 42//34 57//45 30//22
f 44//36 42//34 128//108 11//9
f 44//36 58//46 56//44 34//26
f 61//194 155//134 64//50 128//108
f 65//51 126//106 40//32
f 76//62 126//106 65//51 150//129
f 93//75 130//110 42//34 30//22
f 99//228 61//195 130//110
f 99//226 130//110 93//75
f 130//110 61//191 128//108 42//34
g cube1_V
usemtl V
f 17//159 110//90 114//94 82//214
f 29//21 95//77 116//96 108//88
f 31//23 104//84 114//94 92//74
f 33//25 92//74 114//94 110//90
f 83//220 108//88 116//96
f 83//218 116//96 110//90 17//160
f 110//90 116//96 95//77 33//25
f 114//94 104//84 82//215
g cube1_default
usemtl default
f 158//137 159//138 161//140 160//139 157//136
