# Exported from Wings 3D 1.0.2
mtllib tooth8.mtl
o cube1
#184 vertices, 196 faces
v 0.50451363 12.46877233 0.50297682
v -0.50451363 12.46877233 0.50297682
v 0.50451363 12.46877233 -0.50738856
v -0.50451363 12.46877233 -0.50738856
v 2.41933695 -0.81134589 2.20990940
v -2.7237714e-15 12.46877233 0.64546425
v 0.64681235 12.46877233 -2.2058688e-3
v 1.0670888e-15 -7.76160445 2.22377940
v 4.24959890 -7.76160445 -2.2058688e-3
v -2.41933695 -0.81134589 2.20990940
v -4.24959890 -7.76160445 -2.2058688e-3
v -0.64681235 12.46877233 -2.2058688e-3
v 2.56829825 -0.81134589 -2.21432114
v -2.7237714e-15 12.46877233 -0.64987599
v 1.0670888e-15 -7.76160445 -1.16516476
v -2.56829825 -0.81134589 -2.21432114
v 2.2952482e-16 2.2920449e-2 3.15768313
v -3.38630007 -2.50106408 -2.2058688e-3
v 2.2952482e-16 2.2920449e-2 -3.16209486
v 3.50064641 -3.51874656 -2.2058688e-3
v 1.44860338 7.85856707 1.45535043
v 1.49973841 7.85856707 -1.43895114
v -1.44860338 7.85856707 1.45535043
v -1.49973841 7.85856707 -1.43895114
v -1.2080191e-15 7.85856707 -2.04218972
v 1.99648778 7.85856707 -1.8628298e-3
v -1.2080191e-15 7.85856707 2.03846406
v -1.99648778 7.85856707 -1.8628298e-3
v -3.19166561 -3.56223678 2.36357276
v -2.88657993 -3.56223678 -2.21933425
v 3.19166561 -3.56223678 2.36357276
v 2.88657993 -3.56223678 -2.21933425
v 6.6320821e-16 -3.56223678 3.29871917
v -3.73977559 -3.86645128 -2.2058688e-3
v 6.6320821e-16 -3.56223678 -3.00844540
v 3.75121023 -4.08370934 -2.2058688e-3
v 1.3425221e-15 -10.50750541 0.51718602
v 1.3425221e-15 -10.00006761 -0.66894052
v 4.00834287 -7.76160445 0.90527762
v -4.00834287 -7.76160445 0.90527762
v 4.00834287 -7.76160445 -0.75199126
v -4.00834287 -7.76160445 -0.75199126
v -3.47189108 -5.48859305 2.03317682
v -3.32573364 -5.48859305 -1.72816878
v 8.7225330e-16 -5.48859305 2.81511688
v -4.06554564 -5.48859305 -2.2058688e-3
v 3.47189108 -5.48859305 2.03317682
v 3.32573364 -5.48859305 -1.72816878
v 8.7225330e-16 -4.55095302 -1.66081265
v 4.06554564 -5.48859305 -2.2058688e-3
v 3.28329906 -3.14714127 1.19454849
v 3.28329906 -2.90701394 -1.19896023
v 3.52959211 -3.87259180 -1.18582138
v 3.52959211 -3.87259180 1.18140964
v 3.85350365 -5.48859305 -1.15626037
v 3.85350365 -5.48859305 1.15184863
v -3.28329906 -2.01511245 1.19454849
v -3.28329906 -2.01511245 -1.19896023
v -3.57533065 -3.63246447 1.08567604
v -3.57533065 -3.63246447 -1.09008777
v -3.85350365 -5.48859305 -1.15626037
v -3.85350365 -5.48859305 1.08324082
v 4.32418540 -10.41088884 -2.2058688e-3
v -4.01838287 -9.96230127 -2.2058688e-3
v -2.55968517 -7.76160445 2.01458067
v -2.50136758 -7.76160445 -1.22118298
v 2.50136758 -7.76160445 -1.22118298
v 2.55968517 -7.76160445 2.01458067
v 4.04553997 -10.44588455 0.59269432
v -3.93119363 -9.93844675 -0.58237178
v -3.62539110 -9.83721210 0.76421384
v 4.04553997 -9.93844675 -0.58237178
v -2.7825626e-15 12.97204114 -2.2058688e-3
v 0.25225682 12.46877233 0.57422054
v 0.57566299 12.46877233 0.25038548
v 1.50668094 -7.76160445 2.12261327
v -0.57566299 12.46877233 0.25038548
v 0.25225682 12.46877233 -0.57863228
v 1.50668094 -7.76160445 -1.15240428
v -0.25225682 12.46877233 0.57422054
v 0.57566299 12.46877233 -0.25479722
v -1.50668094 -7.76160445 2.12261327
v -0.57566299 12.46877233 -0.25479722
v -0.25225682 12.46877233 -0.57863228
v -1.50668094 -7.76160445 -1.15240428
v 1.38688105 -1.0448381e-2 -2.90308817
v -1.38688105 -1.0448381e-2 -2.90308817
v 1.38688105 -1.0448381e-2 2.89867643
v -1.38688105 -1.0448381e-2 2.89867643
v 0.83444895 7.85856707 -1.84119521
v 1.83269284 7.85856707 0.81730611
v -0.83444895 7.85856707 1.83746955
v -1.83269284 7.85856707 -0.82103177
v 1.83269284 7.85856707 -0.82103177
v -0.83444895 7.85856707 -1.84119521
v -1.83269284 7.85856707 0.81730611
v 0.83444895 7.85856707 1.83746955
v 1.77881266 -3.56223678 3.00246606
v -1.41313147 -3.56223678 -2.94088498
v 1.41313147 -3.56223678 -2.94088498
v -1.77881266 -3.56223678 3.00246606
v 1.82267447 -5.48859305 2.68609953
v 1.42102048 -5.48859305 -1.60546669
v -1.82267447 -5.48859305 2.68609953
v -1.42102048 -5.48859305 -1.60546669
v -1.41007705 -10.46004004 0.37923047
v 1.41007705 -9.95260224 -0.66820058
v -1.41007705 -9.95260224 -0.66820058
v 1.41007705 -10.46004004 0.37923047
v 2.70052068 -2.47995180 -2.40537197
v 5.0056921e-16 -2.18359656 -3.50139891
v -2.89506960 -2.05687032 2.58595861
v -2.71940704 -2.17471929 -2.38679753
v 5.0056921e-16 -2.18359656 3.49698718
v -1.49054045 -2.18359656 -3.19061463
v 1.62442947 -2.18359656 3.29314202
v 1.48748512 -2.24627291 -3.19023587
v -1.62442947 -2.18359656 3.29314202
v 1.41007705 -10.42504433 -2.2058688e-3
v 1.3425221e-15 -10.47250970 -2.2058688e-3
v -1.41007705 -10.42504433 -2.2058688e-3
v 2.78797947 -10.41796659 -2.2058688e-3
v -2.78797947 -10.41796659 -2.2058688e-3
v 2.72780851 -9.94552450 -0.70632469
v 2.72780851 -10.45296230 0.55457020
v -2.72780851 -9.94552450 -0.70632469
v -2.72780851 -10.45296230 0.55457020
v -3.66158946 -7.76160445 1.48851573
v 3.76450117 -7.76160445 1.32843085
v -3.70964705 -7.76160445 -1.05289136
v 3.70964705 -7.76160445 -1.05289136
v -1.98121597 -5.48859305 -1.83813993
v 1.98121597 -5.48859305 -1.83813993
v 7.6773076e-16 -4.17094124 -2.21126573
v 2.94858974 -2.52983037 2.38965279
v 0.99909125 10.16366970 1.07834756
v 1.02465877 10.16366970 -1.07132466
v -1.9651319e-15 10.16366970 -1.48531757
v 1.35053820 10.16366970 -2.2058688e-3
v -0.99909125 10.16366970 1.07834756
v -1.02465877 10.16366970 -1.07132466
v -1.9651319e-15 10.16366970 1.48090583
v -1.35053820 10.16366970 -2.2058688e-3
v 0.55461926 10.16366970 -1.33549429
v 1.22988835 10.16366970 0.58952670
v -0.55461926 10.16366970 1.33108255
v -1.22988835 10.16366970 -0.59393844
v 1.22988835 10.16366970 -0.59393844
v -0.55461926 10.16366970 -1.33549429
v -1.22988835 10.16366970 0.58952670
v 0.55461926 10.16366970 1.33108255
v 4.28689215 -9.08624665 -2.2058688e-3
v 1.2048055e-15 -9.13455493 1.57630613
v 4.02694142 -9.10374450 0.74898597
v -1.45837899 -9.11082225 1.21661797
v 1.45837899 -9.11082225 1.21661797
v 2.73828204 -9.10728338 1.49039886
v -2.73828204 -9.10728338 1.49039886
v 3.90502057 -9.10374450 0.96056258
v 2.48136327 1.77254654 1.00592730
v 2.48136327 1.89261020 -1.00999600
v -2.48114887 2.33856095 -1.00999600
v -2.48114887 2.33856095 1.00592730
v 1.07745225 3.34089298 2.36807299
v -1.07723785 3.34089298 -2.37214169
v -1.07723785 3.34089298 2.36807299
v 1.07745225 3.34089298 -2.37214169
v 2.66621728 1.58674389 -2.0343493e-3
v 1.0719970e-4 3.35757740 -2.60214229
v 1.97310498 2.94044423 -1.82663614
v 1.87605826 2.94044423 1.83262992
v -2.61054491 2.09558513 -2.0343493e-3
v 1.0719970e-4 3.35757740 2.59807359
v -1.97289058 2.94044423 -1.82663614
v -1.87584386 2.94044423 1.83262992
v 2.73828204 -8.85356448 -0.96375383
v -2.73828204 -8.85356448 -0.96375383
v -1.45837899 -8.85710335 -0.91030243
v 1.45837899 -8.85710335 -0.91030243
v 1.2048055e-15 -8.88083603 -0.91705264
v 0.80000000 3.50000000 0.0000000e+0
v 0.80000000 0.0000000e+0 0.0000000e+0
v -0.80000000 0.0000000e+0 0.0000000e+0
v -0.80000000 3.50000000 0.0000000e+0
vn 0.57346324 0.60245073 0.55515135
vn -0.57346324 0.60245073 0.55515135
vn 0.57668397 0.60407254 -0.55002906
vn -0.57668397 0.60407254 -0.55002906
vn -5.4707223e-16 0.59064899 0.80692860
vn 0.82138798 0.57036986 2.2231640e-17
vn 2.1128098e-17 -0.37695327 0.92623228
vn 0.99934899 3.1042959e-2 -1.8382761e-2
vn -0.99920937 -2.7625604e-2 2.8591212e-2
vn -0.82138798 0.57036986 2.2231640e-17
vn -7.3928680e-18 0.59064899 -0.80692860
vn 4.3391366e-19 -0.19367625 -0.98106550
vn 0.71593368 0.18618607 0.67288462
vn 0.72605322 0.19116099 -0.66053327
vn -0.71000698 0.18726652 0.67883823
vn -0.72096589 0.19201029 -0.66583799
vn -5.0052611e-8 0.18254856 -0.98319684
vn 0.98172272 0.19030845 1.7857399e-3
vn -5.0011158e-8 0.18264944 0.98317810
vn -0.98134313 0.19226456 -4.0704398e-7
vn -0.75111389 1.4347531e-2 0.66001672
vn -0.65218932 -6.4772428e-2 -0.75528380
vn 0.77226781 6.5570829e-2 0.63190418
vn 0.65737950 -5.5805294e-2 -0.75149049
vn 3.4996751e-17 -0.18444916 0.98284206
vn -0.98154362 0.19123445 1.2258155e-3
vn -1.4856544e-3 -0.56063515 -0.82806161
vn 0.96277956 0.27026002 3.8776132e-3
vn 5.6281408e-17 -0.90563656 0.42405474
vn 0.0000000e+0 -0.55300376 -0.83317875
vn 0.93232770 4.1200052e-3 0.36159105
vn -0.92139649 -6.8291901e-2 0.38257642
vn 0.86218137 -1.6631871e-2 -0.50632664
vn -0.87461204 -4.7332893e-2 -0.48250738
vn -0.65440266 -7.3936665e-2 0.75252278
vn -0.51436679 -0.14746802 -0.84479583
vn 6.9719106e-18 -0.22643212 0.97402695
vn -0.99318825 0.11651352 -1.3017793e-3
vn 0.66644531 -7.5452479e-2 0.74172607
vn 0.51477923 -0.14713699 -0.84460230
vn -1.3693773e-17 -0.54964069 -0.83540117
vn 0.99119109 0.13236861 -4.3339453e-3
vn 0.92820149 0.19135136 -0.31910289
vn 0.95385336 0.23916004 0.18156606
vn 0.90081859 6.9462615e-2 -0.42860333
vn 0.95444509 9.8633586e-2 0.28161319
vn -0.96665539 0.16091207 0.19921012
vn -0.93604765 0.14424711 -0.32094792
vn -0.90302225 6.1196830e-2 -0.42521260
vn -0.95537232 8.6664106e-2 0.28240586
vn 0.70028613 -0.66404728 -0.26199340
vn -0.77958360 -0.62612066 -1.4910449e-2
vn -0.25783088 -0.27689109 0.92566439
vn 0.27397129 -0.27040522 0.92294136
vn 0.57466550 -0.47858022 0.66386786
vn -0.50605453 -0.35941041 -0.78404908
vn -0.63539750 -0.46718594 0.61482299
vn 0.55690260 -0.24555822 -0.79344858
vn -3.3897724e-16 1.00000000 1.2488635e-16
vn 0.28382889 0.49374254 0.82198507
vn 0.84245750 0.47281805 0.25827980
vn 6.0948348e-2 -0.37028807 0.92691534
vn -0.84245750 0.47281805 0.25827980
vn 0.28366664 0.49375315 -0.82203471
vn -3.5821665e-2 -0.20293099 -0.97853759
vn -0.28382889 0.49374254 0.82198507
vn 0.84469645 0.47308379 -0.25035901
vn -6.0948348e-2 -0.37028807 0.92691534
vn -0.84469645 0.47308379 -0.25035901
vn -0.28366664 0.49375315 -0.82203471
vn 3.5821665e-2 -0.20293099 -0.97853759
vn 0.37693991 0.18151879 -0.90827707
vn 0.92297777 0.18710019 0.33631170
vn -0.38637013 0.18091540 0.90442675
vn -0.93117320 0.19151352 -0.31022417
vn 0.93189785 0.18883546 -0.30968946
vn -0.37693934 0.18151012 -0.90827904
vn -0.92238425 0.19043514 0.33606808
vn 0.38637081 0.18092439 0.90442466
vn 0.28731939 -0.13231943 0.94865122
vn -0.27695766 -0.14544123 0.94981119
vn 0.20836950 -0.19777788 0.95784449
vn -0.22855088 -0.36371317 -0.90303777
vn -0.20836950 -0.19777788 0.95784449
vn 0.22855088 -0.36371317 -0.90303777
vn -1.5477621e-2 -0.90170241 0.43208010
vn -4.3876984e-4 -0.55697522 -0.83052899
vn 4.3876984e-4 -0.55697522 -0.83052899
vn 1.5477621e-2 -0.90170241 0.43208010
vn 0.74518208 6.8452389e-2 -0.66333848
vn -5.9283928e-4 -6.3002541e-2 -0.99801319
vn -0.77275838 0.20886956 0.59934797
vn -0.73117646 7.1872635e-2 -0.67839171
vn 3.5596558e-17 3.2357462e-3 0.99999476
vn -0.35286750 -2.2259310e-2 -0.93540850
vn 0.36489417 5.3282005e-2 0.92952314
vn 0.35039594 -3.3056349e-2 -0.93601814
vn -0.33820007 5.4574051e-2 0.93949049
vn 1.6509784e-2 -0.94164583 -0.33620018
vn 9.0023668e-17 -0.94034814 -0.34021372
vn -1.6509784e-2 -0.94164583 -0.33620018
vn 1.0918661e-2 -0.94128083 -0.33744805
vn -0.16574377 -0.96231119 -0.21560654
vn 2.2773638e-2 -0.55515037 -0.83143817
vn -4.2157435e-2 -0.89792370 0.43812757
vn -7.0493544e-2 -0.60198147 -0.79539234
vn -0.13997384 -0.85220861 0.50413075
vn -0.68671821 -0.17443435 0.70568460
vn 0.70773756 -0.12697844 0.69497052
vn -0.44324661 -0.16117177 -0.88179142
vn 0.44314035 -0.15056368 -0.88371783
vn 0.82664852 0.20973409 0.52217223
vn 0.69199891 0.28978458 0.66118258
vn 0.70073676 0.29289436 -0.65052355
vn 2.1495684e-17 0.29045321 -0.95688920
vn 0.95889077 0.28377543 -7.3207371e-7
vn -0.69199891 0.28978458 0.66118258
vn -0.70073676 0.29289436 -0.65052355
vn 2.8660639e-17 0.29058758 0.95684840
vn -0.95889077 0.28377543 -7.3207371e-7
vn 0.34722192 0.28194459 -0.89439599
vn 0.90969670 0.27764705 0.30881066
vn -0.34945641 0.28197086 0.89351701
vn -0.91460732 0.27833842 -0.29329366
vn 0.91460732 0.27833842 -0.29329366
vn -0.34722192 0.28194459 -0.89439599
vn -0.90969670 0.27764705 0.30881066
vn 0.34945641 0.28197086 0.89351701
vn 0.99962328 7.9671567e-3 -2.6264329e-2
vn -2.1064259e-17 -0.53599804 0.84421922
vn 0.90877515 -2.2958745e-2 0.41665408
vn -2.2486358e-2 -0.52272415 0.85220527
vn 2.2486358e-2 -0.52272415 0.85220527
vn 0.13093605 -0.42250826 0.89685145
vn -0.10942637 -0.48198665 0.86931855
vn 0.67712329 -0.13867189 0.72268538
vn 0.94178398 0.13800593 0.30658979
vn 0.95442149 0.14161539 -0.26272552
vn -0.95060421 0.15011147 -0.27169502
vn -0.93854293 0.14825498 0.31170118
vn 0.41014674 0.14864967 0.89982383
vn -0.38948161 0.14991472 -0.90875170
vn -0.41014962 0.14865331 0.89982192
vn 0.38947913 0.14991149 -0.90875330
vn 0.99054145 0.13694805 8.5362680e-3
vn -8.0875105e-9 0.14811806 -0.98896969
vn 0.76586538 0.15327383 -0.62446565
vn 0.75762480 0.14555257 0.63625396
vn -0.98953647 0.14428297 6.1683967e-7
vn -8.1051952e-9 0.14803167 0.98898262
vn -0.74491190 0.15548612 -0.64879144
vn -0.73312335 0.14825118 0.66374072
vn 3.4070334e-2 -0.21857465 -0.97522527
vn -3.7310812e-2 -0.21950306 -0.97489810
vn 1.7328725e-2 -0.22027213 -0.97528452
vn -1.7328725e-2 -0.22027213 -0.97528452
vn 1.6914100e-17 -0.21627895 -0.97633161
vn 0.0000000e+0 0.0000000e+0 0.0000000e+0
vn 0.0000000e+0 0.0000000e+0 0.0000000e+0
vn 0.0000000e+0 0.0000000e+0 0.0000000e+0
vn 0.0000000e+0 0.0000000e+0 0.0000000e+0
vn 0.78217786 0.17366770 0.59836221
vn 0.84004539 0.28725031 0.46022928
vn 0.78217786 0.17366770 0.59836221
vn 0.84004539 0.28725031 0.46022928
vn -0.74575172 0.17659366 0.64239322
vn -0.75309197 0.36983826 0.54412513
vn -0.74575172 0.17659366 0.64239322
vn -0.75309197 0.36983826 0.54412513
vn 0.78868872 0.18341121 -0.58679675
vn 0.76427800 0.13054622 -0.63153529
vn 0.76427800 0.13054622 -0.63153529
vn 0.78868872 0.18341121 -0.58679675
vn -0.75752023 0.18571229 -0.62583867
vn -0.74356992 0.15508020 -0.65042594
vn -0.74356992 0.15508020 -0.65042594
vn -0.75752023 0.18571229 -0.62583867
vn 8.2946965e-8 0.16990173 0.98546101
vn 1.4039909e-17 0.17331928 0.98486569
vn 1.4039909e-17 0.17331928 0.98486569
vn 8.2946965e-8 0.16990173 0.98546101
vn -0.98464635 0.17456105 5.9267914e-7
vn -0.97773745 0.20983203 7.6416939e-17
vn -0.97773745 0.20983203 7.6416939e-17
vn -0.98464635 0.17456105 5.9267914e-7
vn 8.3065198e-8 0.17000002 -0.98544406
vn 8.3065198e-8 0.17000002 -0.98544406
vn 1.6928883e-3 0.14518093 -0.98940368
vn 1.6928883e-3 0.14518093 -0.98940368
vn 0.98631294 0.16433266 1.3474515e-2
vn 0.98631294 0.16433266 1.3474515e-2
vn 0.94271985 0.33349662 7.7000775e-3
vn 0.94271985 0.33349662 7.7000775e-3
vn 0.94780225 0.16558919 0.27249058
vn 0.94780225 0.16558919 0.27249058
vn 0.94392923 0.30750939 0.12014817
vn 0.94392923 0.30750939 0.12014817
vn 0.94392923 0.30750939 0.12014817
vn 0.96102299 0.16992921 -0.21807996
vn 0.93187831 0.19338281 -0.30692982
vn 0.93187831 0.19338281 -0.30692982
vn 0.93187831 0.19338281 -0.30692982
vn 0.96102299 0.16992921 -0.21807996
vn -0.94215455 0.18019523 0.28262073
vn -0.94561728 0.26031642 0.19504698
vn -0.94561728 0.26031642 0.19504698
vn -0.94561728 0.26031642 0.19504698
vn -0.94215455 0.18019523 0.28262073
vn -0.95488287 0.18210124 -0.23460144
vn -0.93173367 0.15435420 -0.32870528
vn -0.93173367 0.15435420 -0.32870528
vn -0.93173367 0.15435420 -0.32870528
vn -0.95488287 0.18210124 -0.23460144
vn 4.9870965e-2 -0.24323519 -0.96868443
vn 4.9870965e-2 -0.24323519 -0.96868443
vn 4.9870965e-2 -0.24323519 -0.96868443
vn 4.9870965e-2 -0.24323519 -0.96868443
vn 4.9870965e-2 -0.24323519 -0.96868443
vn -5.0719665e-2 -0.24246745 -0.96883283
vn -5.0719665e-2 -0.24246745 -0.96883283
vn -5.0719665e-2 -0.24246745 -0.96883283
vn -5.0719665e-2 -0.24246745 -0.96883283
vn -5.0719665e-2 -0.24246745 -0.96883283
vn 0.39440048 0.17551139 -0.90202218
vn 0.39440048 0.17551139 -0.90202218
vn 0.38649007 0.14014942 -0.91158300
vn 0.38649007 0.14014942 -0.91158300
vn -0.39440654 0.17553538 -0.90201486
vn -0.38189903 0.14785377 -0.91230060
vn -0.38189903 0.14785377 -0.91230060
vn -0.39440654 0.17553538 -0.90201486
vn 0.42114551 0.17443960 0.89006027
vn 0.39949583 0.20928011 0.89252727
vn 0.42114551 0.17443960 0.89006027
vn 0.39949583 0.20928011 0.89252727
vn -0.42115256 0.17446517 0.89005192
vn -0.36417047 0.23794229 0.90042398
vn -0.42115256 0.17446517 0.89005192
vn -0.36417047 0.23794229 0.90042398
vn -0.24210155 -0.39238549 -0.88736716
vn -0.24210155 -0.39238549 -0.88736716
vn 0.20204590 -0.65373682 -0.72925005
vn -0.24210155 -0.39238549 -0.88736716
vn -0.24210155 -0.39238549 -0.88736716
vn 0.20204590 -0.65373682 -0.72925005
vn 0.20204590 -0.65373682 -0.72925005
vn 0.23658109 -0.39845911 -0.88614882
vn 0.23658109 -0.39845911 -0.88614882
vn -0.20204590 -0.65373682 -0.72925005
vn 0.23658109 -0.39845911 -0.88614882
vn -0.20204590 -0.65373682 -0.72925005
vn -0.20204590 -0.65373682 -0.72925005
vn 0.23658109 -0.39845911 -0.88614882
vn -0.18785245 -0.28102589 -0.94113543
vn 0.34564445 -0.43357691 -0.83219047
vn 0.34564445 -0.43357691 -0.83219047
vn -0.18785245 -0.28102589 -0.94113543
vn 0.18785245 -0.28102589 -0.94113543
vn 0.18785245 -0.28102589 -0.94113543
vn -0.34564445 -0.43357691 -0.83219047
vn -0.34564445 -0.43357691 -0.83219047
vn -8.6772675e-18 -0.79479230 -0.60688153
vn 3.1283346e-17 -0.82294091 -0.56812697
vn 3.1283346e-17 -0.82294091 -0.56812697
vn -8.6772675e-18 -0.79479230 -0.60688153
g cube1_Buildup
usemtl Buildup
f 181//158 184//161 183//160 182//159
g cube1_Cementum
usemtl Cementum
f 1//1 73//59 6//5 74//60
f 1//1 74//60 151//128 136//113
f 2//2 73//59 12//10 77//63
f 2//2 140//117 146//123 80//66
f 3//3 81//67 148//125 137//114
f 4//4 141//118 147//124 83//69
f 5//164 171//148 164//141 88//234
f 6//5 73//59 2//2 80//66
f 6//5 142//119 151//128 74//60
f 7//6 75//61 145//122 139//116
f 7//6 139//116 148//125 81//67
f 10//166 89//236 166//143 175//152
f 12//10 73//59 4//4 83//69
f 12//10 143//120 150//127 77//63
f 13//173 170//147 161//138 52//203
f 14//11 78//64 144//121 138//115
f 14//11 138//115 149//126 84//70
f 16//174 58//209 162//139 174//151
f 17//178 88//232 164//141 173//150
f 18//182 57//204 163//140 172//149
f 19//186 169//146 167//144 86//224
f 20//191 168//145 160//137 51//195
f 21//13 97//79 164//141 171//148
f 21//13 136//113 151//128 97//79
f 22//14 94//76 161//138 170//147
f 22//14 137//114 148//125 94//76
f 23//15 92//74 146//123 140//117
f 23//15 175//152 166//143 92//74
f 24//16 93//75 147//124 141//118
f 24//16 174//151 162//139 93//75
f 25//17 90//72 167//144 169//146
f 25//17 138//115 144//121 90//72
f 26//18 91//73 160//137 168//145
f 26//18 139//116 145//122 91//73
f 27//19 97//79 151//128 142//119
f 27//19 173//150 164//141 97//79
f 28//20 96//78 150//127 143//120
f 28//20 172//149 163//140 96//78
f 51//194 160//137 171//148 5//162
f 52//199 161//138 168//145 20//190
f 75//61 7//6 73//59 1//1
f 77//63 150//127 140//117 2//2
f 78//64 14//11 73//59 3//3
f 80//66 146//123 142//119 6//5
f 81//67 3//3 73//59 7//6
f 83//69 147//124 143//120 12//10
f 84//70 4//4 73//59 14//11
f 84//70 149//126 141//118 4//4
f 86//225 167//144 170//147 13//170
f 87//228 165//142 169//146 19//187
f 90//72 144//121 137//114 22//14
f 91//73 145//122 136//113 21//13
f 92//74 166//143 173//150 27//19
f 93//75 162//139 172//149 28//20
f 94//76 148//125 139//116 26//18
f 95//77 149//126 138//115 25//17
f 95//77 165//142 174//151 24//16
f 96//78 163//140 175//152 23//15
f 136//113 145//122 75//61 1//1
f 137//114 144//121 78//64 3//3
f 140//117 150//127 96//78 23//15
f 141//118 149//126 95//77 24//16
f 142//119 146//123 92//74 27//19
f 143//120 147//124 93//75 28//20
f 168//145 161//138 94//76 26//18
f 169//146 165//142 95//77 25//17
f 170//147 167//144 90//72 22//14
f 171//148 160//137 91//73 21//13
f 172//149 162//139 58//213 18//185
f 173//150 166//143 89//238 17//181
f 174//151 165//142 87//231 16//177
f 175//152 163//140 57//208 10//168
g cube1_D
usemtl D
f 11//9 46//38 61//49 42//34
f 34//26 60//48 61//49 46//38
f 42//34 70//56 64//52 11//9
f 42//34 130//110 70//56
f 44//36 61//49 60//48 30//22
f 61//49 44//36 130//110 42//34
f 66//218 177//154 70//56 130//110
f 99//244 132//257 44//36 30//22
f 132//254 66//214 130//110 44//36
g cube1_DF
usemtl DF
f 11//9 40//32 62//50 46//38
f 11//9 64//52 71//57 40//32
f 29//21 43//35 104//84 101//81
f 29//21 59//47 62//50 43//35
f 40//32 128//108 43//35 62//50
f 43//35 128//108 65//53
f 46//38 62//50 59//47 34//26
f 65//53 104//84 43//35
f 71//57 128//108 40//32
f 128//108 71//57 158//135 65//53
g cube1_Enamel2
usemtl Enamel2
f 13//172 52//202 110//90
f 16//175 113//93 58//211
f 19//188 86//226 117//97 111//91
f 20//193 36//28 53//43 52//200
f 30//22 60//48 58//212 113//93
f 35//27 111//91 117//97 100//250
f 58//210 60//48 34//26 18//183
f 87//230 115//95 113//93 16//176
f 99//240 115//95 111//91 35//27
f 100//248 117//97 110//90 32//24
f 110//90 52//201 53//43 32//24
f 110//90 117//97 86//227 13//171
f 111//91 115//95 87//229 19//189
f 113//93 115//95 99//243 30//22
g cube1_EnamelF
usemtl EnamelF
f 5//163 135//112 51//198
f 18//184 34//26 59//47 57//205
f 29//21 101//81 118//98 112//92
f 31//23 135//112 116//96 98//80
f 33//25 98//80 116//96 114//94
f 51//196 54//44 36//28 20//192
f 51//197 135//112 31//23 54//44
f 57//207 112//92 10//167
f 112//92 57//206 59//47 29//21
f 114//94 118//98 101//81 33//25
g cube1_F
usemtl F
f 8//7 45//37 104//84 82//68
f 8//7 76//62 102//82 45//37
f 8//7 153//130 156//133 76//62
f 33//25 45//37 102//82 98//80
f 33//25 101//81 104//84 45//37
f 65//53 158//135 155//132 82//68
f 68//54 102//82 76//62
f 76//62 156//133 157//134 68//54
f 82//68 104//84 65//53
f 82//68 155//132 153//130 8//7
g cube1_I
usemtl I
f 38//30 108//88 178//155 180//157
f 38//30 120//100 121//101 108//88
f 63//51 122//102 124//104 72//58
f 70//56 126//106 123//103 64//52
f 70//56 177//154 126//106
f 107//87 119//99 120//100 38//30
f 107//87 124//104 122//102 119//99
f 107//87 179//156 176//153 124//104
f 121//101 123//103 126//106 108//88
f 124//104 176//153 72//58
f 126//106 177//154 178//155 108//88
f 180//157 179//156 107//87 38//30
g cube1_IF
usemtl IF
f 37//29 109//89 156//133 153//130
f 37//29 120//100 119//99 109//89
f 64//52 123//103 127//107 71//57
f 69//55 125//105 122//102 63//51
f 69//55 157//134 125//105
f 106//86 121//101 120//100 37//29
f 106//86 127//107 123//103 121//101
f 106//86 155//132 158//135 127//107
f 119//99 122//102 125//105 109//89
f 125//105 157//134 156//133 109//89
f 127//107 158//135 71//57
f 153//130 155//132 106//86 37//29
g cube1_L
usemtl L
f 15//12 180//157 178//155 85//71
f 35//27 100//253 134//265
f 49//41 99//246 134//264
f 49//41 100//252 103//83
f 49//41 103//83 79//65 15//12
f 66//217 105//85 85//71
f 67//220 176//153 179//156 79//65
f 79//65 103//83 67//219
f 79//65 179//156 180//157 15//12
f 85//71 105//85 49//41 15//12
f 85//71 178//155 177//154 66//215
f 103//83 100//251 133//261
f 105//85 66//216 132//256
f 105//85 99//245 49//41
f 105//85 132//255 99//242
f 133//260 67//222 103//83
f 134//262 99//241 35//27
f 134//263 100//249 49//41
g cube1_M
usemtl M
f 9//8 152//129 72//58 41//33
f 32//24 53//43 55//45 48//40
f 41//33 55//45 50//42 9//8
f 41//33 131//111 48//40 55//45
f 48//40 133//258 100//247 32//24
f 50//42 55//45 53//43 36//28
f 67//221 133//259 48//40 131//111
f 72//58 131//111 41//33
f 72//58 152//129 63//51
f 131//111 72//58 176//153 67//223
g cube1_MF
usemtl MF
f 9//8 39//31 154//131 152//129
f 9//8 50//42 56//46 39//31
f 31//23 98//80 102//82 47//39
f 36//28 54//44 56//46 50//42
f 39//31 129//109 159//136 154//131
f 47//39 56//46 54//44 31//23
f 47//39 102//82 68//54
f 56//46 47//39 129//109 39//31
f 63//51 152//129 154//131 69//55
f 68//54 129//109 47//39
f 68//54 157//134 159//136 129//109
f 69//55 154//131 159//136
f 159//136 157//134 69//55
g cube1_V
usemtl V
f 10//169 112//92 118//98 89//239
f 17//179 114//94 116//96 88//233
f 88//235 116//96 135//112 5//165
f 89//237 118//98 114//94 17//180
g cube1_default
usemtl default
f 182//159 183//160 184//161 181//158
