# Exported from Wings 3D 1.0.2
mtllib tooth25.mtl
o cube1
#160 vertices, 170 faces
v -0.86945151 -12.07342268 0.58054404
v -4.7467644e-2 -12.07347057 0.58054404
v -0.86945151 -12.07342268 -0.58369512
v -4.7467644e-2 -12.07347057 -0.58369512
v -1.28586661 0.63127079 1.85608133
v -0.45845958 -12.07344663 0.74473161
v -0.98537231 -12.07341593 -1.5755406e-3
v 3.7963029e-4 6.93233461 1.48438615
v -2.40886224 6.93254261 -1.5755406e-3
v 1.28590996 0.69961211 1.85608133
v 2.44392540 6.93212661 -1.5755406e-3
v 6.8453157e-2 -12.07347732 -1.5755406e-3
v -1.28586661 0.63127079 -1.85923241
v -0.45845958 -12.07344663 -0.74788270
v 3.7963029e-4 6.93233461 -0.74162679
v 1.28590996 0.69961211 -1.85923241
v -1.3660356e-5 -5.1486775e-2 2.65198848
v 1.75275305 2.97541431 -1.5755406e-3
v -1.3660356e-5 -5.1486775e-2 -2.65513956
v -1.75263438 2.04957214 -1.5755406e-3
v -1.06616694 -6.74599704 1.60417503
v -1.06616694 -6.74599704 -1.60732611
v 1.06499062 -6.74618586 1.60417503
v 1.06499062 -6.74618586 -1.60732611
v -5.8815952e-4 -6.74609145 -2.00131938
v -1.27533061 -6.74597851 -1.5755406e-3
v -5.8815952e-4 -6.74609145 1.99816830
v 1.27415429 -6.74620439 -1.5755406e-3
v 1.59546427 3.17668493 1.99316145
v 1.60681114 3.17669757 -2.04205107
v -1.72783899 3.17699737 1.99316145
v -1.54932970 3.17698473 -1.80192374
v 1.5413366e-4 3.17684115 2.84546039
v 1.96565415 3.45058530 -1.5755406e-3
v 1.5413366e-4 3.17684115 -2.59444629
v -2.02248917 3.45096930 -1.5755406e-3
v 5.3331276e-4 9.39194446 -1.7653722e-2
v 5.0604788e-4 8.98685673 -0.85019486
v -2.35577315 6.93253080 0.79384586
v 2.35653241 6.93213842 0.75954196
v 1.82780558 4.91129800 1.70819614
v 1.99311980 4.91130515 -1.07597690
v 2.6364417e-4 4.91146793 2.34664943
v 2.12769704 4.91126894 -1.5755406e-3
v -1.89767763 4.91163786 1.70819614
v -1.93541934 4.91163071 -1.07597690
v 2.6364417e-4 4.70564451 -1.22186435
v -2.21864683 4.91166692 -1.5755406e-3
v -1.64382587 1.62693227 1.00341682
v -1.64382587 1.62693227 -1.00656791
v -1.88669730 3.24026306 -0.93986976
v -1.95790445 3.24026306 0.93671868
v -2.18306347 4.91165654 0.99379230
v 1.64391985 2.16401942 1.00341682
v 1.64391985 2.16401942 -1.00656791
v 1.77087437 3.23989516 0.93671868
v 1.87557783 3.23989516 -0.93986976
v 2.11498295 4.91127932 0.91374986
v -2.51288877 9.41227684 -0.49326483
v 2.51394501 9.41227684 -0.49326483
v 1.64749725 6.93220007 -0.87540943
v -1.64673799 6.93246915 -0.87540943
v -2.42365067 9.39194446 -1.7653722e-2
v 2.42468341 8.98685673 -0.85019486
v 2.42471068 9.39194446 -1.7653722e-2
v -2.42367794 8.98685673 -0.85019486
v -0.60714357 -12.47680992 -1.5755406e-3
v -0.66395554 -12.07343466 0.66263783
v -0.92741191 -12.07341931 0.28948425
v -1.22591485 6.93240836 1.39713073
v 1.0492756e-2 -12.07347395 0.28948425
v -0.66395554 -12.07343466 -0.66578891
v -0.90245827 6.93240836 -0.73062092
v -0.25296361 -12.07345860 0.66263783
v -0.92741191 -12.07341931 -0.29263533
v 1.22667837 6.93226087 1.39713073
v 1.0492756e-2 -12.07347395 -0.29263533
v -0.25296361 -12.07345860 -0.66578891
v 0.90321753 6.93226087 -0.73062092
v -0.69439192 -2.1367179e-2 -2.43763482
v 0.69436743 -2.1511083e-2 -2.43763482
v -0.69439192 -2.1367179e-2 2.43448374
v 0.69436743 -2.1511083e-2 2.43448374
v -0.53337755 -6.74604424 -1.80432275
v -1.17074877 -6.74598777 0.80129975
v 0.53220123 -6.74613866 1.80117166
v 1.16957246 -6.74619513 -0.80445083
v -1.17074877 -6.74598777 -0.80445083
v 0.53220123 -6.74613866 -1.80432275
v 1.16957246 -6.74619513 0.80129975
v -0.53337755 -6.74604424 1.80117166
v -1.06759980 3.17692822 2.58994315
v 0.97439175 3.17675409 -2.33892905
v -0.97408348 3.17692822 -2.33892905
v 1.06789789 3.17675409 2.58994315
v -1.12901120 4.91155241 2.18963389
v -0.90946732 4.91154224 -1.27704036
v 1.12953532 4.91138345 2.18963389
v 0.90999461 4.91139362 -1.27704036
v 0.84548139 9.39194446 -1.7653722e-2
v -0.84444713 8.98685673 -0.85019486
v 0.84545412 8.98685673 -0.85019486
v -0.84441986 9.39194446 -1.7653722e-2
v -1.52129853 1.99295269 2.01344892
v -1.30347267 1.82143540 -2.35969501
v 8.3798098e-5 1.93541645 -3.01961691
v -2.00310042 2.82207455 -1.5755406e-3
v 1.34015051 1.99269280 2.18496844
v 1.36080199 1.82117105 -2.46260672
v 8.3798098e-5 1.93541645 3.01646583
v -1.85891023 2.58636558 -0.94222289
v -1.85891023 2.58636558 0.93907181
v 0.81859263 1.93533695 -2.84380120
v -0.81842503 1.93549596 2.84065012
v -0.81842503 1.93549596 -2.84380120
v 0.81859263 1.93533695 2.84065012
v -0.84442174 9.41227684 -0.49326483
v 5.3143242e-4 9.41227684 -0.49326483
v 0.84547951 9.41227684 -0.49326483
v -1.67009297 9.41227684 -0.49326483
v 1.67114998 9.41227684 -0.49326483
v -1.63406253 8.98685673 -0.85019486
v -1.63403527 9.39194446 -1.7653722e-2
v 1.63506877 8.98685673 -0.85019486
v 1.63509603 9.39194446 -1.7653722e-2
v 2.16621611 6.93215036 1.11178992
v -2.16545685 6.93251887 1.11178992
v 2.22328553 6.93215304 -0.73025851
v -2.22252627 6.93251618 -0.73025851
v 1.51382643 4.91134430 -1.17082662
v -1.51329914 4.91159156 -1.17082662
v -0.96825746 -9.54692548 1.33150360
v -0.96825746 -9.54692548 -1.33465468
v -0.12661216 -9.54698465 -1.67218265
v -1.15355561 -9.54691283 -1.5755406e-3
v 0.71503315 -9.54704383 1.33150360
v 0.71503315 -9.54704383 -1.33465468
v -0.12661216 -9.54698465 1.66903157
v 0.90033130 -9.54705647 -1.5755406e-3
v -0.54743481 -9.54695506 -1.50341866
v -1.06090654 -9.54691916 0.66496403
v 0.29421050 -9.54701424 1.50026758
v 0.80768222 -9.54705015 -0.66811511
v -1.06090654 -9.54691916 -0.66811511
v 0.29421050 -9.54701424 -1.50341866
v 0.80768222 -9.54705015 0.66496403
v -0.54743481 -9.54695506 1.50026758
v 2.0888892e-4 4.04415454 -1.91958995
v 4.5647153e-4 7.96775075 0.93918964
v 1.23034273 7.96771388 0.86125802
v -1.22942325 7.96778762 0.86125802
v 4.4283909e-4 7.95959567 -0.79591082
v -0.87345270 7.95963254 -0.79040789
v 0.87433583 7.95955880 -0.79040789
v 1.64128301 7.95952840 -0.86280214
v -1.64040026 7.95966294 -0.86280214
v 0.70000000 0.0000000e+0 0.0000000e+0
v -0.70000000 0.0000000e+0 0.0000000e+0
v -0.70000000 -3.50000000 2.4492936e-16
v 0.70000000 -3.50000000 0.0000000e+0
vn -0.66708230 -0.55468008 0.49732406
vn 0.56489993 -0.69405204 0.44629567
vn -0.66708230 -0.55468008 -0.49732406
vn 0.56489993 -0.69405204 -0.44629567
vn -9.1478657e-3 -0.65998743 0.75122095
vn -0.91610324 -0.40094245 1.4892850e-17
vn 2.3176392e-5 0.42033856 0.90736734
vn -0.99459652 -7.0523982e-2 -7.6184879e-2
vn 0.99472267 -8.4044574e-2 -5.8849959e-2
vn 0.77845942 -0.62769493 0.0000000e+0
vn -9.1478657e-3 -0.65998743 -0.75122095
vn 6.9538293e-6 7.8459960e-2 -0.99691727
vn -0.80777827 -7.3013419e-2 0.58494726
vn -0.80777827 -7.3013419e-2 -0.58494726
vn 0.80739377 -0.10572170 0.58046380
vn 0.80739377 -0.10572170 -0.58046380
vn -3.4631813e-4 -0.10932169 -0.99400636
vn -0.99872176 -5.0545432e-2 6.2900919e-17
vn -3.4631813e-4 -0.10932169 0.99400636
vn 0.99569028 -9.2740867e-2 0.0000000e+0
vn 0.87783396 -6.1281113e-2 0.47502859
vn 0.78829851 0.12085270 -0.60330762
vn -0.85405941 -5.0686701e-2 0.51770009
vn -0.80569922 0.10449533 -0.58303473
vn 1.6539557e-5 0.19708745 0.98038591
vn 0.98234553 -0.18600118 2.0020527e-2
vn 3.9985729e-5 0.45219585 -0.89191867
vn -0.99480667 -8.7224914e-2 -5.2454821e-2
vn 5.5039353e-6 0.86851515 0.49566262
vn -6.3503238e-7 0.31582818 -0.94881640
vn -0.96033256 9.1227121e-3 0.27870801
vn 0.96288768 -1.5755435e-2 0.26944218
vn 0.79556545 3.9417127e-2 0.60458407
vn 0.82625125 6.6894066e-2 -0.55931570
vn 2.2630190e-5 0.31348828 0.94959207
vn 0.99138314 -0.12604065 -3.5682172e-2
vn -0.76821648 7.3706458e-2 0.63593301
vn -0.81359814 4.4711246e-2 -0.57970593
vn 3.2009439e-5 0.41224944 -0.91107102
vn -0.99079827 -0.10043492 -9.0728253e-2
vn -0.96320411 -5.1664049e-2 -0.26375874
vn -0.98097268 -0.11952107 0.15299448
vn -0.97667149 -8.3674671e-2 0.19776592
vn 0.97634218 -0.16405962 0.14085591
vn 0.98095346 -0.15395690 -0.11843814
vn 0.97293922 -0.12488686 0.19440305
vn -0.74743581 0.58624016 -0.31250949
vn 0.74273425 0.59234221 -0.31221233
vn -0.54398520 0.54795245 0.63547479
vn 0.34417301 0.16092623 -0.92501226
vn 0.54872568 0.54589719 0.63316379
vn -0.34907305 0.16113117 -0.92313853
vn -7.1760275e-2 -0.99742191 -4.8881762e-17
vn -0.32266677 -0.49626405 0.80598272
vn -0.94374434 -0.28992946 0.15902050
vn -0.19280225 0.38204641 0.90380741
vn 0.83977639 -0.52467710 0.13960502
vn -0.32266677 -0.49626405 -0.80598272
vn 6.8013325e-2 9.8267572e-2 -0.99283315
vn 0.30645410 -0.56561306 0.76561593
vn -0.94374434 -0.28992946 -0.15902050
vn 0.19689771 0.37993323 0.90381526
vn 0.83977639 -0.52467710 -0.13960502
vn 0.30645410 -0.56561306 -0.76561593
vn -6.7997042e-2 9.8276778e-2 -0.99283336
vn -0.40955985 -8.9856564e-2 -0.90784720
vn -0.98701377 -4.9161444e-2 0.15292800
vn 0.40970976 -0.10576794 0.90606349
vn 0.98485285 -9.1756053e-2 -0.14712476
vn -0.98701377 -4.9161444e-2 -0.15292800
vn 0.40970976 -0.10576794 -0.90606349
vn 0.98485285 -9.1756053e-2 0.14712476
vn -0.40955985 -8.9856564e-2 0.90784720
vn -0.44840566 0.11564577 0.88631733
vn 0.26631511 0.41994359 -0.86759647
vn -0.35504889 0.39168926 -0.84883438
vn 0.47991708 0.11439868 0.86982328
vn -0.32515002 0.25714560 0.91002945
vn 0.34682618 0.25004868 0.90398410
vn 8.8856035e-3 0.86557211 0.50070548
vn 1.1594523e-2 0.32342313 -0.94618341
vn -1.1595405e-2 0.32342539 -0.94618263
vn -8.8800412e-3 0.86557655 0.50069790
vn -0.86570825 -0.16361464 0.47305335
vn -0.83993529 -9.0907917e-2 -0.53501818
vn 6.1068689e-6 7.3041078e-2 -0.99732893
vn -0.98665486 -0.16232914 -1.2705724e-2
vn 0.87683679 -0.13153257 0.46244613
vn 0.83307282 -0.12950446 -0.53779017
vn -3.0468453e-6 -2.6903941e-2 0.99963802
vn -0.97205634 -0.12108646 -0.20110829
vn -0.97557451 -0.17619816 0.13118153
vn 0.39343501 3.9701586e-2 -0.91849479
vn -0.51489744 -7.6296288e-2 0.85384981
vn -0.48754060 3.3065694e-2 -0.87247397
vn 0.53674246 -7.1593242e-2 0.84070324
vn 1.8392612e-16 0.91511721 -0.40318790
vn 0.0000000e+0 0.91511721 -0.40318790
vn -1.8392630e-16 0.91511721 -0.40318790
vn 1.9294495e-18 0.91511721 -0.40318790
vn -1.9294531e-18 0.91511721 -0.40318790
vn 1.2372736e-2 0.33939400 -0.94056293
vn 3.4287718e-18 0.86265809 0.50578753
vn -1.2372986e-2 0.33939549 -0.94056239
vn -3.4287992e-18 0.86265224 0.50579751
vn 0.66451295 0.20006823 0.71999670
vn -0.64373915 0.21822808 0.73346875
vn 0.69479586 -3.4872570e-2 -0.71836106
vn -0.69214083 -3.0217227e-2 -0.72112967
vn 0.21361474 0.31265938 -0.92553382
vn -0.27256424 0.27837013 -0.92098795
vn -0.77839819 -0.14642592 0.61045533
vn -0.77839819 -0.14642592 -0.61045533
vn -3.1674423e-3 -0.23263262 -0.97255953
vn -0.99832400 -5.7872169e-2 4.2077909e-17
vn 0.75461352 -0.27368466 0.59636830
vn 0.75461352 -0.27368466 -0.59636830
vn -3.1674423e-3 -0.23263262 0.97255953
vn 0.97411777 -0.22604110 -7.0391254e-18
vn -0.35826144 -0.18936498 -0.91421532
vn -0.98775443 -6.0194759e-2 0.14393669
vn 0.35338994 -0.24759340 0.90211588
vn 0.96388077 -0.22643027 -0.14022551
vn -0.98775443 -6.0194759e-2 -0.14393669
vn 0.35338994 -0.24759340 -0.90211588
vn 0.96388077 -0.22643027 0.14022551
vn -0.35826144 -0.18936498 0.91421532
vn 1.5399067e-5 0.50431068 0.86352229
vn 6.1055303e-2 0.49507773 0.86670081
vn -6.1027652e-2 0.49510583 0.86668670
vn -2.3085576e-6 -5.5348940e-2 -0.99846707
vn 4.4129827e-2 -3.9978650e-2 -0.99822556
vn -4.4133156e-2 -3.9971161e-2 -0.99822571
vn -1.0282314e-2 -2.0208031e-2 -0.99974292
vn 1.0280251e-2 -2.0211951e-2 -0.99974286
vn 0.0000000e+0 0.0000000e+0 0.0000000e+0
vn 0.0000000e+0 0.0000000e+0 0.0000000e+0
vn 0.0000000e+0 0.0000000e+0 0.0000000e+0
vn 0.0000000e+0 0.0000000e+0 0.0000000e+0
vn -0.89720829 -0.20362346 0.39186065
vn -0.82976465 -6.1623979e-2 0.55470092
vn -0.82976465 -6.1623979e-2 0.55470092
vn -0.89720829 -0.20362346 0.39186065
vn 0.83398133 -6.0575195e-2 0.54845764
vn 0.83398133 -6.0575195e-2 0.54845764
vn 0.89742439 -0.14373044 0.41709833
vn 0.89742439 -0.14373044 0.41709833
vn -0.88939608 -0.20184857 -0.41016066
vn -0.82976465 -6.1623979e-2 -0.55470092
vn -0.82976465 -6.1623979e-2 -0.55470092
vn -0.88939608 -0.20184857 -0.41016066
vn 0.83398133 -6.0575195e-2 -0.54845764
vn 0.83398133 -6.0575195e-2 -0.54845764
vn 0.91987175 -0.23168314 -0.31647888
vn 0.91987175 -0.23168314 -0.31647888
vn -9.2595711e-6 -9.9517130e-2 0.99503585
vn -9.2595711e-6 -9.9517130e-2 0.99503585
vn -1.9328112e-5 -0.19961850 0.97987369
vn -1.9328112e-5 -0.19961850 0.97987369
vn 0.99864178 -5.2101834e-2 6.9698106e-18
vn 0.99864178 -5.2101834e-2 6.9698106e-18
vn 0.96856868 -0.24477741 4.4257482e-2
vn 0.96856868 -0.24477741 4.4257482e-2
vn -9.2595711e-6 -9.9517130e-2 -0.99503585
vn -9.2595711e-6 -9.9517130e-2 -0.99503585
vn -1.9328112e-5 -0.19961850 -0.97987369
vn -1.9328112e-5 -0.19961850 -0.97987369
vn -0.96607444 -0.25826376 -6.2495672e-17
vn -0.99840262 -5.6499597e-2 6.9767772e-17
vn -0.99840262 -5.6499597e-2 6.9767772e-17
vn -0.96607444 -0.25826376 -6.2495672e-17
vn -0.96730925 -0.22698204 0.11310162
vn -0.98350364 -5.3014805e-2 0.17294517
vn -0.98350364 -5.3014805e-2 0.17294517
vn -0.96730925 -0.22698204 0.11310162
vn -0.96620222 -0.20874772 -0.15125364
vn -0.98350364 -5.3014805e-2 -0.17294517
vn -0.98350364 -5.3014805e-2 -0.17294517
vn -0.96620222 -0.20874772 -0.15125364
vn 0.98550359 -4.9899845e-2 0.16215021
vn 0.98550359 -4.9899845e-2 0.16215021
vn 0.97585015 -0.15216830 0.15672043
vn 0.97585015 -0.15216830 0.15672043
vn 0.97585015 -0.15216830 0.15672043
vn 0.98550359 -4.9899845e-2 -0.16215021
vn 0.98550359 -4.9899845e-2 -0.16215021
vn 0.97597985 -0.19448452 -9.8178984e-2
vn 0.97597985 -0.19448452 -9.8178984e-2
vn 0.97597985 -0.19448452 -9.8178984e-2
vn 5.0919819e-2 9.2533205e-2 -0.99440675
vn 5.0919819e-2 9.2533205e-2 -0.99440675
vn 5.0919819e-2 9.2533205e-2 -0.99440675
vn 5.0919819e-2 9.2533205e-2 -0.99440675
vn 5.0919819e-2 9.2533205e-2 -0.99440675
vn -5.3387697e-2 9.1612964e-2 -0.99436252
vn -5.3387697e-2 9.1612964e-2 -0.99436252
vn -5.3387697e-2 9.1612964e-2 -0.99436252
vn -5.3387697e-2 9.1612964e-2 -0.99436252
vn -5.3387697e-2 9.1612964e-2 -0.99436252
vn -0.46196319 -8.1276005e-2 -0.88316715
vn -0.46196319 -8.1276005e-2 -0.88316715
vn -0.59956817 -0.21801121 -0.77005787
vn -0.59956817 -0.21801121 -0.77005787
vn -0.59956817 -0.21801121 -0.77005787
vn 0.46335770 -8.1187862e-2 -0.88244443
vn 0.56714751 -0.24733042 -0.78560255
vn 0.46335770 -8.1187862e-2 -0.88244443
vn 0.56714751 -0.24733042 -0.78560255
vn 0.56714751 -0.24733042 -0.78560255
vn -0.46196319 -8.1276005e-2 0.88316715
vn -0.62694550 -0.20078825 0.75274392
vn -0.46196319 -8.1276005e-2 0.88316715
vn -0.62694550 -0.20078825 0.75274392
vn -0.62694550 -0.20078825 0.75274392
vn 0.46335770 -8.1187862e-2 0.88244443
vn 0.46335770 -8.1187862e-2 0.88244443
vn 0.63657606 -0.19218532 0.74688401
vn 0.63657606 -0.19218532 0.74688401
vn 0.63657606 -0.19218532 0.74688401
vn 0.18126350 0.50260671 -0.84529879
vn -0.15569764 0.40993611 -0.89872723
vn -0.15569764 0.40993611 -0.89872723
vn 0.18126350 0.50260671 -0.84529879
vn -0.15569764 0.40993611 -0.89872723
vn 0.15576628 0.40991375 -0.89872553
vn -0.18118651 0.50263285 -0.84529975
vn 0.15576628 0.40991375 -0.89872553
vn -0.18118651 0.50263285 -0.84529975
vn 0.15576628 0.40991375 -0.89872553
vn 5.5609050e-5 0.72569986 -0.68801142
vn 5.5609050e-5 0.72569986 -0.68801142
vn 4.8327755e-5 0.55755126 -0.83014251
vn 4.8327755e-5 0.55755126 -0.83014251
g cube1_Buildup
usemtl Buildup
f 158//137 159//138 160//139 157//136
g cube1_Cementum
usemtl Cementum
f 1//1 67//53 6//5 68//54
f 1//1 68//54 147//127 132//112
f 2//2 67//53 12//10 71//57
f 2//2 136//116 142//122 74//60
f 3//3 75//61 144//124 133//113
f 4//4 137//117 143//123 77//63
f 5//141 49//173 85//67 21//13
f 6//5 67//53 2//2 74//60
f 6//5 138//118 147//127 68//54
f 7//6 69//55 141//121 135//115
f 7//6 135//115 144//124 75//61
f 10//144 83//215 86//68 23//15
f 12//10 67//53 4//4 77//63
f 12//10 139//119 146//126 71//57
f 13//149 80//201 84//66 22//14
f 14//11 72//58 140//120 134//114
f 14//11 134//114 145//125 78//64
f 16//153 55//186 87//69 24//16
f 17//156 82//210 91//73 27//19
f 18//160 54//180 90//72 28//20
f 19//164 25//17 84//66 80//200
f 20//170 26//18 85//67 49//174
f 21//13 91//73 82//212 5//142
f 21//13 132//112 147//127 91//73
f 22//14 88//70 50//178 13//150
f 22//14 133//113 144//124 88//70
f 23//15 86//68 142//122 136//116
f 23//15 90//72 54//181 10//145
f 24//16 87//69 143//123 137//117
f 24//16 89//71 81//205 16//152
f 25//17 134//114 140//120 84//66
f 26//18 135//115 141//121 85//67
f 27//19 86//68 83//216 17//157
f 27//19 91//73 147//127 138//118
f 28//20 87//69 55//185 18//161
f 28//20 90//72 146//126 139//119
f 50//177 88//70 26//18 20//169
f 69//55 7//6 67//53 1//1
f 71//57 146//126 136//116 2//2
f 72//58 14//11 67//53 3//3
f 74//60 142//122 138//118 6//5
f 75//61 3//3 67//53 7//6
f 77//63 143//123 139//119 12//10
f 78//64 4//4 67//53 14//11
f 78//64 145//125 137//117 4//4
f 81//207 89//71 25//17 19//165
f 84//66 140//120 133//113 22//14
f 85//67 141//121 132//112 21//13
f 88//70 144//124 135//115 26//18
f 89//71 145//125 134//114 25//17
f 132//112 141//121 69//55 1//1
f 133//113 140//120 72//58 3//3
f 136//116 146//126 90//72 23//15
f 137//117 145//125 89//71 24//16
f 138//118 142//122 86//68 27//19
f 139//119 143//123 87//69 28//20
g cube1_D
usemtl D
f 9//8 129//109 46//38 48//40
f 32//24 51//41 46//38
f 46//38 131//111 94//76 32//24
f 48//40 46//38 51//41 36//28
f 59//47 66//52 129//109 9//8
f 62//198 131//111 46//38 129//109
f 97//222 94//76 131//111
f 129//109 66//52 156//135 62//197
f 131//111 62//199 97//221
g cube1_DF
usemtl DF
f 9//8 39//31 63//49 59//47
f 9//8 48//40 53//43 39//31
f 31//23 92//74 96//78 45//37
f 36//28 52//42 53//43 48//40
f 39//31 127//107 63//49
f 45//37 53//43 52//42 31//23
f 53//43 45//37 127//107 39//31
f 96//78 70//56 127//107 45//37
f 151//130 63//49 127//107 70//56
g cube1_Enamel2
usemtl Enamel2
f 13//148 50//176 111//91 105//85
f 16//154 109//89 55//188
f 19//166 80//202 115//95 106//86
f 30//22 57//45 55//189 109//89
f 35//27 106//86 115//95 94//76
f 51//41 32//24 105//85 111//91
f 51//41 111//91 107//87 36//28
f 55//187 57//45 34//26 18//162
f 80//203 105//85 115//95
f 81//209 109//89 16//155
f 93//75 113//93 106//86 35//27
f 94//76 115//95 105//85 32//24
f 105//85 80//204 13//151
f 106//86 113//93 81//208 19//167
f 107//87 111//91 50//179 20//171
f 109//89 113//93 93//75 30//22
f 113//93 109//89 81//206
g cube1_EnamelF
usemtl EnamelF
f 5//140 82//211 104//84
f 10//146 108//88 83//218
f 18//163 34//26 56//44 54//182
f 20//168 49//172 112//92 107//87
f 36//28 107//87 112//92 52//42
f 54//184 108//88 10//147
f 104//84 112//92 49//175 5//143
f 108//88 54//183 56//44 29//21
f 112//92 104//84 31//23 52//42
g cube1_F
usemtl F
f 8//7 43//35 98//79 76//62
f 8//7 70//56 96//78 43//35
f 8//7 149//128 151//130 70//56
f 33//25 43//35 96//78 92//74
f 33//25 95//77 98//79 43//35
f 76//62 150//129 149//128 8//7
g cube1_I
usemtl I
f 38//30 102//82 154//133 152//131
f 38//30 118//98 119//99 102//82
f 59//47 120//100 122//102 66//52
f 64//50 124//104 121//101 60//48
f 64//50 155//134 124//104
f 101//81 117//97 118//98 38//30
f 101//81 122//102 120//100 117//97
f 101//81 153//132 156//135 122//102
f 119//99 121//101 124//104 102//82
f 122//102 156//135 66//52
f 124//104 155//134 154//133 102//82
f 152//131 153//132 101//81 38//30
g cube1_IF
usemtl IF
f 37//29 103//83 151//130 149//128
f 37//29 118//98 117//97 103//83
f 60//48 121//101 125//105 65//51
f 63//49 123//103 120//100 59//47
f 63//49 151//130 123//103
f 100//80 119//99 118//98 37//29
f 100//80 125//105 121//101 119//99
f 100//80 150//129 125//105
f 117//97 120//100 123//103 103//83
f 123//103 151//130 103//83
f 125//105 150//129 65//51
f 149//128 150//129 100//80 37//29
g cube1_L
usemtl L
f 15//12 152//131 154//133 79//65
f 35//27 148//233 99//229 93//75
f 47//39 73//59 15//12
f 47//39 148//231 97//223
f 61//191 99//226 47//39 79//65
f 62//196 156//135 153//132 73//59
f 73//59 47//39 97//220 62//195
f 73//59 153//132 152//131 15//12
f 79//65 47//39 15//12
f 79//65 154//133 155//134 61//192
f 94//76 97//224 148//232 35//27
f 99//228 148//230 47//39
g cube1_M
usemtl M
f 11//9 128//108 64//50 60//48
f 34//26 57//45 42//34 44//36
f 42//34 57//45 30//22
f 44//36 42//34 128//108 11//9
f 61//193 155//134 64//50 128//108
f 93//75 130//110 42//34 30//22
f 99//227 61//194 130//110
f 99//225 130//110 93//75
f 130//110 61//190 128//108 42//34
g cube1_MF
usemtl MF
f 11//9 40//32 58//46 44//36
f 11//9 60//48 65//51 40//32
f 29//21 41//33 98//79 95//77
f 29//21 56//44 58//46 41//33
f 40//32 126//106 41//33 58//46
f 41//33 126//106 76//62 98//79
f 44//36 58//46 56//44 34//26
f 65//51 126//106 40//32
f 76//62 126//106 65//51 150//129
g cube1_V
usemtl V
f 17//158 110//90 114//94 82//213
f 29//21 95//77 116//96 108//88
f 31//23 104//84 114//94 92//74
f 33//25 92//74 114//94 110//90
f 83//219 108//88 116//96
f 83//217 116//96 110//90 17//159
f 110//90 116//96 95//77 33//25
f 114//94 104//84 82//214
g cube1_default
usemtl default
f 157//136 160//139 159//138 158//137
