# Exported from Wings 3D 1.0.2
mtllib tooth7.mtl
o cube1
#198 vertices, 210 faces
v -0.26693137 12.54150538 0.99025542
v -1.11013522 12.54150538 0.99025542
v -0.26693137 12.54150538 0.19610822
v -1.11013522 12.54150538 0.19610822
v 1.84277594 -0.76465373 1.73749773
v -0.68853329 12.54150538 1.10225054
v -0.14801800 12.54150538 0.59318182
v 6.7015557e-4 -6.59973799 1.35294414
v 3.26069046 -6.59973799 -1.2248746e-3
v -1.84143563 -0.76465373 1.73749773
v -3.25935015 -6.59973799 -1.2248746e-3
v -1.22904858 12.54150538 0.59318182
v 1.84277594 -0.76465373 -1.73994747
v -0.68853329 12.54150538 8.4113108e-2
v 6.7015557e-4 -6.59973799 -0.91531056
v -1.84143563 -0.76465373 -1.73994747
v 6.7015557e-4 -5.2530135e-2 2.48244788
v -2.51016012 -1.52374834 -1.2248746e-3
v 6.7015557e-4 -5.2530135e-2 -2.48489762
v 2.51150043 -1.52374834 -1.2248746e-3
v 1.04821568 8.60626817 1.46210873
v 1.04821568 8.60626817 -1.46455848
v -1.25269879 8.60626817 1.46210873
v -1.25269879 8.60626817 -1.46455848
v -0.10224156 8.60626817 -1.82360776
v 1.27404025 8.60626817 -1.2248746e-3
v -0.10224156 8.60626817 1.82115801
v -1.47852336 8.60626817 -1.2248746e-3
v -2.40127063 -3.43542806 1.85827713
v -2.20699601 -3.43542806 -1.86072688
v 2.40261094 -3.43542806 1.85827713
v 2.20833632 -3.43542806 -1.86072688
v 6.7015557e-4 -3.43542806 2.51325976
v -2.95144505 -3.43542806 -1.2248746e-3
v 6.7015557e-4 -2.76078462 -1.95248230
v 2.95278536 -3.43542806 -1.2248746e-3
v 6.7015557e-4 -8.83540058 0.40701715
v 6.7015557e-4 -8.60807883 -0.52527831
v 3.07561427 -6.59973799 0.90079723
v -3.07427396 -6.59973799 0.90079723
v 3.07561427 -6.59973799 -0.59055619
v -3.07427396 -6.59973799 -0.59055619
v -2.66274248 -4.75711742 1.59858592
v -2.55061985 -4.75711742 -1.35783172
v 6.7015557e-4 -4.75711742 1.95335017
v -3.11815626 -4.75711742 -1.2248746e-3
v 2.66408279 -4.75711742 1.59858592
v 2.55196016 -4.75711742 -1.35783172
v 6.7015557e-4 -4.75711742 -1.13412498
v 3.11949657 -4.75711742 -1.2248746e-3
v 2.35560857 -1.27487244 0.93942405
v 2.35560857 -1.27487244 -0.94187380
v 2.82902960 -3.43542806 -0.85630005
v 2.82902960 -3.43542806 0.85385030
v 2.95683153 -4.75711742 -0.90831171
v 2.95683153 -4.75711742 0.90586196
v -2.35426825 -1.27487244 0.93942405
v -2.35426825 -1.27487244 -0.94187380
v -2.82768928 -3.43542806 0.85385030
v -2.82768928 -3.43542806 -0.85630005
v -2.95549122 -4.75711742 -0.90831171
v -2.95549122 -4.75711742 0.90586196
v 3.32569194 -8.22839270 -4.3134308e-3
v -3.16092329 -7.59161457 -1.2248746e-3
v -1.92243630 -6.59973799 1.18851394
v -1.99834840 -6.59973799 -0.95934088
v 1.99968871 -6.59973799 -0.95934088
v 1.92377661 -6.59973799 1.18851394
v 3.11031435 -8.25643231 0.47377901
v -3.10280920 -7.39968892 -0.45723528
v -2.94716435 -7.41566323 0.46636667
v 3.11008723 -7.82121824 -0.46591810
v -0.80287964 12.97109192 0.59318182
v -0.47773233 12.54150538 1.04625298
v -0.20747468 12.54150538 0.79171862
v 1.15649934 -6.59973799 1.27342757
v -1.16959190 12.54150538 0.79171862
v -0.47773233 12.54150538 0.14011067
v 1.15649934 -6.59973799 -0.90528083
v -0.89933426 12.54150538 1.04625298
v -0.20747468 12.54150538 0.39464502
v -1.15515903 -6.59973799 1.27342757
v -1.16959190 12.54150538 0.39464502
v -0.89933426 12.54150538 0.14011067
v -1.15515903 -6.59973799 -0.90528083
v 0.99540728 -8.1013522e-2 -2.28131836
v -0.99406697 -8.1013522e-2 -2.28131836
v 0.99540728 -8.1013522e-2 2.27886861
v -0.99406697 -8.1013522e-2 2.27886861
v 0.47298706 8.60626817 -1.64408312
v 1.16112797 8.60626817 0.73044193
v -0.67747017 8.60626817 1.64163337
v -1.36561108 8.60626817 -0.73289168
v 1.16112797 8.60626817 -0.73289168
v -0.67747017 8.60626817 -1.64408312
v -1.36561108 8.60626817 0.73044193
v 0.47298706 8.60626817 1.64163337
v 1.33934506 -3.43542806 2.28040482
v -1.29248981 -3.43542806 -2.13127420
v 1.29383012 -3.43542806 -2.13127420
v -1.33800475 -3.43542806 2.28040482
v 1.58642171 -4.75711742 1.85194254
v 1.16532397 -4.75711742 -1.09062304
v -1.58508140 -4.75711742 1.85194254
v -1.16398366 -4.75711742 -1.09062304
v -1.08105071 -8.79488449 0.40643556
v 1.08239102 -8.56756274 -0.52469672
v -1.08105071 -8.56756274 -0.52469672
v 1.08239102 -8.79488449 0.40643556
v 1.93553686 -1.82782420 2.03307240
v 1.84673229 -1.82782420 -2.24398268
v 6.7015557e-4 -1.93599678 -2.75159061
v 2.76569846 -2.33190651 -1.2248746e-3
v -1.93419655 -1.82782420 2.03307240
v -1.84539198 -1.82782420 -2.24398268
v 6.7015557e-4 -1.93599678 2.74914086
v -2.76435815 -2.33190651 -1.2248746e-3
v 2.55713184 -2.10848164 -0.85844448
v 2.55713184 -2.10848164 0.85599473
v -2.55579153 -2.10848164 0.85599473
v -2.55579153 -2.10848164 -0.85844448
v -1.18318025 -1.93599678 -2.59136832
v 1.18452056 -1.93599678 2.58891857
v 1.18452056 -1.93599678 -2.59136832
v -1.18318025 -1.93599678 2.58891857
v 1.08239102 -8.97083583 -1.2248746e-3
v 6.7015557e-4 -9.01135192 -1.2248746e-3
v -1.08105071 -8.97083583 -1.2248746e-3
v 2.13942957 -8.96479432 -1.2248746e-3
v -2.13808926 -8.57953072 -1.2248746e-3
v 2.09327026 -8.56152123 -0.55466227
v 2.09327026 -8.78884298 0.43640112
v -2.09192995 -8.17625763 -0.55466227
v -2.09192995 -8.40357938 0.43640112
v -2.88721422 -6.59973799 1.04465559
v 2.88855453 -6.59973799 1.04465559
v -2.84513364 -6.59973799 -0.82706367
v 2.84647395 -6.59973799 -0.82706367
v -1.69562249 -4.75711742 -1.44426905
v 1.69696281 -4.75711742 -1.44426905
v 6.7015557e-4 -3.19170442 -1.45168006
v 0.52987450 10.57388677 1.22618207
v 0.52987450 10.57388677 -0.63422513
v -1.47933676 3.93954922 1.59980323
v -1.47933676 3.93954922 -1.60225298
v -0.32106230 10.57388677 -0.86974733
v 0.71498417 10.57388677 0.29597847
v 6.7015557e-4 3.93954922 2.15180294
v -1.91543120 3.93954922 -1.2248746e-3
v 1.48067707 3.93954922 1.59980323
v 1.48067707 3.93954922 -1.60225298
v -1.17199909 10.57388677 1.22618207
v -1.17199909 10.57388677 -0.63422513
v 6.7015557e-4 3.93954922 -2.15425269
v 1.91677151 3.93954922 -1.2248746e-3
v -0.32106230 10.57388677 1.46170427
v -1.35710877 10.57388677 0.29597847
v 0.77559994 3.93954922 -1.96270074
v -0.77425963 3.93954922 1.96025099
v -0.77425963 3.93954922 -1.96270074
v 0.77559994 3.93954922 1.96025099
v 0.10440610 10.57388677 -0.75198623
v 0.62242933 10.57388677 0.76108027
v -0.74653070 10.57388677 1.34394317
v -1.26455393 10.57388677 -0.16912333
v 0.62242933 10.57388677 -0.16912333
v -0.74653070 10.57388677 -0.75198623
v -1.26455393 10.57388677 0.76108027
v 0.10440610 10.57388677 1.34394317
v -1.78197894 3.93954922 0.83493299
v -1.78197894 3.93954922 -0.83738274
v 1.78331925 3.93954922 -0.83738274
v 1.78331925 3.93954922 0.83493299
v 1.25233452 -4.09627274 -1.61094862
v -1.25099420 -4.09627274 -1.61094862
v -0.55487993 -3.43542806 -2.24770168
v 0.55622024 -3.43542806 -2.24770168
v 6.7015557e-4 -2.68571242 -2.55785988
v -2.09996458 -7.50165868 0.81245753
v 2.10130489 -7.51133633 0.88106534
v 1.11944518 -7.51435709 0.90853937
v -1.11810487 -7.51435709 0.90853937
v 6.7015557e-4 -7.53461513 0.94858846
v 2.10130489 -7.58062961 -0.75700158
v -2.09996458 -7.52521343 -0.75700158
v -1.11810487 -7.58365037 -0.71498877
v 1.11944518 -7.58365037 -0.71498877
v 6.7015557e-4 -7.60390841 -0.72029443
v -2.48761113 -7.92820534 -0.48545812
v -2.64950627 -8.16561508 -1.2248746e-3
v -2.42710209 -8.05683391 0.45552723
v -1.26059250 -2.90297048 2.43466169
v 1.26193281 -2.90297048 2.43466169
v 6.7015557e-4 -2.90297048 2.63120031
v 0.80000000 3.50000000 0.0000000e+0
v 0.80000000 0.0000000e+0 0.0000000e+0
v -0.80000000 0.0000000e+0 0.0000000e+0
v -0.80000000 3.50000000 0.0000000e+0
vn 0.53752832 0.63438270 0.55553749
vn -0.62984736 0.47773018 0.61242647
vn 0.50656704 0.69386766 -0.51179830
vn -0.60210113 0.55656214 -0.57246207
vn -4.2949439e-3 0.50377828 0.86382232
vn 0.76107861 0.64865828 1.3372266e-3
vn 3.4778741e-18 -0.34839851 0.93734651
vn 0.99904088 3.3330048e-2 -2.8397774e-2
vn -0.99945340 -3.2510586e-2 5.9970329e-3
vn -0.91004005 0.41452023 2.8677545e-4
vn -5.3371626e-3 0.61393266 -0.78934036
vn 2.1705643e-18 -0.14987523 -0.98870492
vn 0.73464111 0.18401743 0.65302375
vn 0.72690953 0.26768616 -0.63241335
vn -0.74701132 9.0121890e-2 0.65867452
vn -0.74450086 0.17925592 -0.64310635
vn -1.6984499e-3 0.25855248 -0.96599572
vn 0.97814094 0.20794228 5.5838257e-4
vn -8.2549444e-4 0.12532179 0.99211580
vn -0.99676325 8.0392778e-2 1.4611198e-4
vn -0.69592369 2.5216473e-2 0.71767287
vn -0.61239449 -0.10280035 -0.78383996
vn 0.69592369 2.5216473e-2 0.71767287
vn 0.61239449 -0.10280035 -0.78383996
vn 7.0136569e-18 -0.28965441 0.95713130
vn -0.98872693 0.14972994 2.8144874e-17
vn -9.3687898e-17 -0.91422352 -0.40521026
vn 0.98872693 0.14972994 -3.5181092e-17
vn 1.8760904e-18 -0.69903654 0.71508595
vn 0.0000000e+0 -0.52527217 -0.85093428
vn 0.88978687 -3.1676015e-2 0.45527570
vn -0.88144521 -0.15196232 0.44717088
vn 0.86495809 -1.4803066e-2 -0.50162572
vn -0.87896170 -4.4054614e-2 -0.47485316
vn -0.63012417 -0.10040522 0.76997553
vn -0.50282574 -0.17086696 -0.84733155
vn -3.4832656e-18 -0.32637296 0.94524107
vn -0.99614045 8.7245865e-2 -9.6109205e-3
vn 0.63012417 -0.10040522 0.76997553
vn 0.50282574 -0.17086696 -0.84733155
vn -1.4088753e-17 -0.22849161 -0.97354588
vn 0.99614045 8.7245865e-2 -9.6109205e-3
vn 0.92908178 0.11979036 -0.34993901
vn 0.94767513 0.15133235 0.28108784
vn 0.90526201 3.4946975e-2 -0.42341398
vn 0.94721191 7.3619158e-2 0.31204136
vn -0.94767513 0.15133235 0.28108784
vn -0.92908178 0.11979036 -0.34993901
vn -0.90526201 3.4946975e-2 -0.42341398
vn -0.94721191 7.3619158e-2 0.31204136
vn 0.88024689 -0.45563690 -0.13251579
vn -0.91085250 -0.41155230 3.1183864e-2
vn -0.16049820 -0.35533722 0.92085601
vn 5.7850782e-2 -0.23007438 -0.97145204
vn -6.8407513e-2 -0.21840570 -0.97345743
vn 0.12478371 -0.31107750 0.94215700
vn 0.54127780 -0.38600475 0.74700648
vn -0.63566922 -0.30041023 -0.71111063
vn -0.59298633 -0.42335282 0.68493767
vn 0.55921700 -0.23973118 -0.79360274
vn -5.4443091e-2 0.99851688 1.9740017e-16
vn 0.23719344 0.42322838 0.87442382
vn 0.81282446 0.54732219 0.19938608
vn 6.9933044e-2 -0.33917205 0.93812136
vn -0.93350362 0.27415748 0.23110316
vn 0.21444576 0.57307404 -0.79094827
vn -2.0944585e-2 -0.14934436 -0.98856340
vn -0.24559313 0.34571909 0.90562814
vn 0.79181094 0.57897598 -0.19447943
vn -7.9309497e-2 -0.34638003 0.93473573
vn -0.92028366 0.31802776 -0.22789542
vn -0.22487842 0.51113360 -0.82956141
vn 1.9391293e-2 -0.15068920 -0.98839099
vn 0.29651689 0.26269629 -0.91818756
vn 0.96334744 0.19207346 0.18726849
vn -0.30479559 9.8393072e-2 0.94732173
vn -0.97764153 9.0605435e-2 -0.18975694
vn 0.95861015 0.21514118 -0.18649627
vn -0.29881615 0.23030442 -0.92610409
vn -0.97959553 6.5241703e-2 0.19009502
vn 0.30352306 0.13615458 0.94304596
vn 0.25439524 -0.19948207 0.94630332
vn 4.1846713e-2 -0.48296601 -0.87463860
vn -4.1846713e-2 -0.48296601 -0.87463860
vn -0.25439524 -0.19948207 0.94630332
vn 0.15119336 -0.28945000 0.94517684
vn -0.25502145 -0.28199845 -0.92490050
vn -0.15119336 -0.28945000 0.94517684
vn 0.25502145 -0.28199845 -0.92490050
vn -0.13343275 -0.68849360 0.71286202
vn -2.1715869e-4 -0.52924551 -0.84846871
vn -8.9901047e-2 -0.53020316 -0.84309099
vn 1.6880722e-2 -0.69585251 0.71798630
vn 0.70159009 0.12630188 0.70129821
vn 0.68834488 0.13483857 -0.71274111
vn 9.3561275e-17 -5.8706654e-2 -0.99827528
vn 0.97465214 0.22372575 0.0000000e+0
vn -0.70159009 0.12630188 0.70129821
vn -0.68834488 0.13483857 -0.71274111
vn 4.9702252e-17 1.3404358e-2 0.99991016
vn -0.97465214 0.22372575 7.0198110e-17
vn 0.93394912 0.19246532 -0.30115800
vn 0.93554415 0.20927011 0.28454028
vn -0.93554415 0.20927011 0.28454028
vn -0.93394912 0.19246532 -0.30115800
vn -0.28615386 -2.9047817e-2 -0.95774328
vn 0.38303057 3.6128083e-2 0.92302890
vn 0.28615386 -2.9047817e-2 -0.95774328
vn -0.38303057 3.6128083e-2 0.92302890
vn 1.7374059e-2 -0.99213370 -0.12397126
vn 2.0135815e-18 -0.99225746 -0.12419799
vn -0.19445730 -0.97330291 -0.12193361
vn 0.27378608 -0.94692171 -0.16846502
vn -0.50105862 -0.86037358 -9.3260707e-2
vn 0.17281898 -0.49407858 -0.85206805
vn 0.17233181 -0.68290218 0.70989180
vn -0.31049747 -0.52131811 -0.79487027
vn -0.36839327 -0.61859436 0.69399382
vn -0.49651736 -0.31738619 0.80792111
vn 0.48428595 -0.20581400 0.85035741
vn -0.47647904 -0.17656708 -0.86127335
vn 0.46675211 -0.15420605 -0.87084038
vn 0.25777720 -0.41079288 -0.87452852
vn -0.25777720 -0.41079288 -0.87452852
vn -4.6303630e-17 -0.67906425 -0.73407884
vn 0.69257336 0.30606659 0.65319629
vn 0.65667118 0.46587079 -0.59308294
vn -0.74403572 8.2148007e-2 0.66307055
vn -0.74403572 8.2148007e-2 -0.66307055
vn -3.9269662e-3 0.43383273 -0.90098487
vn 0.93919911 0.34336804 1.8472083e-3
vn -5.7607593e-5 8.1081224e-2 0.99670750
vn -0.99484253 0.10143144 7.0183665e-18
vn 0.74274344 9.7959367e-2 0.66237160
vn 0.74274344 9.7959367e-2 -0.66237160
vn -0.73211137 0.10483147 0.67307006
vn -0.71760796 0.29061152 -0.63291686
vn -5.7607593e-5 8.1081224e-2 -0.99670750
vn 0.99240193 0.12303823 1.4036567e-17
vn -1.8919714e-3 0.17695751 0.98421667
vn -0.99755182 6.9929894e-2 4.1505537e-4
vn 0.35215271 8.0160601e-2 -0.93250349
vn -0.35234012 7.2948948e-2 0.93302459
vn -0.35234012 7.2948948e-2 -0.93302459
vn 0.35215271 8.0160601e-2 0.93250349
vn 0.24508294 0.44835066 -0.85960226
vn 0.92956952 0.31854805 0.18554687
vn -0.27182394 0.12917558 0.95363799
vn -0.97517365 0.10451581 -0.19522498
vn 0.91218530 0.36717694 -0.18193151
vn -0.25265592 0.38784731 -0.88641946
vn -0.97951357 4.5743287e-2 0.19611403
vn 0.26824222 0.20655947 0.94094596
vn -0.96313085 9.2871786e-2 0.25249515
vn -0.96313085 9.2871786e-2 -0.25249515
vn 0.96095592 0.11419722 -0.25203711
vn 0.96095592 0.11419722 0.25203711
vn -0.39977810 -0.56642911 -0.72064938
vn 0.39977810 -0.56642911 -0.72064938
vn 0.53382438 -0.64184270 -0.55051746
vn -0.53382438 -0.64184270 -0.55051746
vn 1.0231078e-16 -0.65281360 -0.75751859
vn -0.23637443 -0.37865963 0.89484301
vn 8.7194752e-2 -0.32895011 0.94031319
vn 3.5170740e-2 -0.36198661 0.93151957
vn -7.1003655e-2 -0.37566151 0.92403296
vn 0.0000000e+0 -0.38005030 0.92496582
vn 8.3916549e-2 -0.20275480 -0.97562724
vn -0.17262064 -0.26176040 -0.94957022
vn 2.7816155e-3 -0.20445185 -0.97887267
vn -1.7387835e-2 -0.19337056 -0.98097171
vn 4.3369511e-19 -0.19041394 -0.98170389
vn -0.47456767 -0.49957729 -0.72471240
vn -0.68877984 -0.72469540 -1.9972573e-2
vn -0.51946623 -0.50940297 0.68604916
vn -0.34425154 -0.12059735 0.93109997
vn 0.34425154 -0.12059735 0.93109997
vn 6.3261054e-17 -0.18538056 0.98266680
vn 0.0000000e+0 0.0000000e+0 0.0000000e+0
vn 0.0000000e+0 0.0000000e+0 0.0000000e+0
vn 0.0000000e+0 0.0000000e+0 0.0000000e+0
vn 0.0000000e+0 0.0000000e+0 0.0000000e+0
vn 0.78316022 0.22355884 0.58024263
vn 0.73947734 9.0690545e-2 0.66704459
vn 0.78316022 0.22355884 0.58024263
vn 0.73947734 9.0690545e-2 0.66704459
vn -0.78316022 0.22355884 0.58024263
vn -0.73947734 9.0690545e-2 0.66704459
vn -0.78316022 0.22355884 0.58024263
vn -0.73947734 9.0690545e-2 0.66704459
vn 0.79289718 0.25718709 -0.55242091
vn 0.73947734 9.0690545e-2 -0.66704459
vn 0.79289718 0.25718709 -0.55242091
vn 0.73947734 9.0690545e-2 -0.66704459
vn -0.73947734 9.0690545e-2 -0.66704459
vn -0.79289718 0.25718709 -0.55242091
vn -0.79289718 0.25718709 -0.55242091
vn -0.73947734 9.0690545e-2 -0.66704459
vn 4.2663569e-17 8.6863840e-2 0.99622019
vn 0.0000000e+0 0.16071177 0.98700138
vn 0.0000000e+0 0.16071177 0.98700138
vn 4.2663569e-17 8.6863840e-2 0.99622019
vn -0.96521145 0.26147058 9.7924513e-17
vn -0.96521145 0.26147058 9.7924513e-17
vn -0.99392453 0.11006373 1.4025799e-17
vn -0.99392453 0.11006373 1.4025799e-17
vn 4.2663569e-17 8.6863840e-2 -0.99622019
vn 4.2663569e-17 8.6863840e-2 -0.99622019
vn 4.2209380e-17 0.16071177 -0.98700138
vn 4.2209380e-17 0.16071177 -0.98700138
vn 0.96521145 0.26147058 8.3935297e-17
vn 0.99392453 0.11006373 1.4025799e-17
vn 0.99392453 0.11006373 1.4025799e-17
vn 0.96521145 0.26147058 8.3935297e-17
vn 0.93227239 0.22531483 0.28302193
vn 0.95027267 0.10313048 0.29384683
vn 0.95027267 0.10313048 0.29384683
vn 0.93227239 0.22531483 0.28302193
vn 0.93267728 0.22774557 -0.27972317
vn 0.95027267 0.10313048 -0.29384683
vn 0.93267728 0.22774557 -0.27972317
vn 0.95027267 0.10313048 -0.29384683
vn -0.93227239 0.22531483 0.28302193
vn -0.93227239 0.22531483 0.28302193
vn -0.95027267 0.10313048 0.29384683
vn -0.95027267 0.10313048 0.29384683
vn -0.93267728 0.22774557 -0.27972317
vn -0.95027267 0.10313048 -0.29384683
vn -0.93267728 0.22774557 -0.27972317
vn -0.95027267 0.10313048 -0.29384683
vn 0.37779827 8.3239607e-2 -0.92213862
vn 0.37779827 8.3239607e-2 -0.92213862
vn 0.43958812 0.22984996 -0.86829216
vn 0.43958812 0.22984996 -0.86829216
vn 0.43958812 0.22984996 -0.86829216
vn -0.43958812 0.22984996 -0.86829216
vn -0.37779827 8.3239607e-2 -0.92213862
vn -0.43958812 0.22984996 -0.86829216
vn -0.43958812 0.22984996 -0.86829216
vn -0.37779827 8.3239607e-2 -0.92213862
vn 0.37779827 8.3239607e-2 0.92213862
vn 0.47727178 0.20783689 0.85382403
vn 0.47727178 0.20783689 0.85382403
vn 0.47727178 0.20783689 0.85382403
vn 0.37779827 8.3239607e-2 0.92213862
vn -0.37779827 8.3239607e-2 0.92213862
vn -0.47727178 0.20783689 0.85382403
vn -0.47727178 0.20783689 0.85382403
vn -0.47727178 0.20783689 0.85382403
vn -0.37779827 8.3239607e-2 0.92213862
g cube1_Buildup
usemtl Buildup
f 195//179 198//182 197//181 196//180
g cube1_Cementum
usemtl Cementum
f 1//1 73//61 6//5 74//62
f 1//1 74//62 169//153 142//126
f 2//2 73//61 12//10 77//65
f 2//2 152//136 164//148 80//68
f 3//3 81//69 166//150 143//127
f 4//4 153//137 165//149 83//71
f 5//186 150//134 161//145 88//245
f 6//5 73//61 2//2 80//68
f 6//5 156//140 169//153 74//62
f 7//6 75//63 163//147 147//131
f 7//6 147//131 166//150 81//69
f 10//188 89//246 159//143 144//128
f 12//10 73//61 4//4 83//71
f 12//10 157//141 168//152 77//65
f 13//194 151//135 172//156 52//222
f 14//11 78//66 162//146 146//130
f 14//11 146//130 167//151 84//72
f 16//195 58//228 171//155 145//129
f 17//199 88//241 161//145 148//132
f 18//205 57//225 170//154 149//133
f 19//207 154//138 158//142 86//231
f 20//213 155//139 173//157 51//217
f 21//13 97//81 161//145 150//134
f 21//13 142//126 169//153 97//81
f 22//14 94//78 172//156 151//135
f 22//14 143//127 166//150 94//78
f 23//15 92//76 164//148 152//136
f 23//15 144//128 159//143 92//76
f 24//16 93//77 165//149 153//137
f 24//16 145//129 171//155 93//77
f 25//17 90//74 158//142 154//138
f 25//17 146//130 162//146 90//74
f 26//18 91//75 173//157 155//139
f 26//18 147//131 163//147 91//75
f 27//19 97//81 169//153 156//140
f 27//19 148//132 161//145 97//81
f 28//20 96//80 168//152 157//141
f 28//20 149//133 170//154 96//80
f 51//216 173//157 150//134 5//184
f 52//220 172//156 155//139 20//212
f 75//63 7//6 73//61 1//1
f 77//65 168//152 152//136 2//2
f 78//66 14//11 73//61 3//3
f 80//68 164//148 156//140 6//5
f 81//69 3//3 73//61 7//6
f 83//71 165//149 157//141 12//10
f 84//72 4//4 73//61 14//11
f 84//72 167//151 153//137 4//4
f 86//232 158//142 151//135 13//192
f 87//237 160//144 154//138 19//208
f 90//74 162//146 143//127 22//14
f 91//75 163//147 142//126 21//13
f 92//76 159//143 148//132 27//19
f 93//77 171//155 149//133 28//20
f 94//78 166//150 147//131 26//18
f 95//79 160//144 145//129 24//16
f 95//79 167//151 146//130 25//17
f 96//80 170//154 144//128 23//15
f 142//126 163//147 75//63 1//1
f 143//127 162//146 78//66 3//3
f 144//128 170//154 57//226 10//190
f 145//129 160//144 87//240 16//198
f 148//132 159//143 89//250 17//202
f 149//133 171//155 58//230 18//206
f 150//134 173//157 91//75 21//13
f 151//135 158//142 90//74 22//14
f 152//136 168//152 96//80 23//15
f 153//137 167//151 95//79 24//16
f 154//138 160//144 95//79 25//17
f 155//139 172//156 94//78 26//18
f 156//140 164//148 92//76 27//19
f 157//141 165//149 93//77 28//20
g cube1_D
usemtl D
f 11//9 46//38 61//49 42//34
f 34//26 60//48 61//49 46//38
f 42//34 70//58 64//52 11//9
f 42//34 137//121 70//58
f 44//36 61//49 60//48 30//22
f 61//49 44//36 137//121 42//34
f 66//54 185//169 70//58 137//121
f 70//58 189//173 190//174 64//52
f 99//83 139//123 44//36 30//22
f 139//123 66//54 137//121 44//36
f 185//169 189//173 70//58
g cube1_DF
usemtl DF
f 11//9 40//32 62//50 46//38
f 11//9 64//52 71//59 40//32
f 29//21 43//35 104//88 101//85
f 29//21 59//47 62//50 43//35
f 40//32 135//119 43//35 62//50
f 43//35 135//119 65//53 104//88
f 46//38 62//50 59//47 34//26
f 64//52 190//174 191//175 71//59
f 71//59 135//119 40//32
f 135//119 71//59 179//163 65//53
f 191//175 179//163 71//59
g cube1_Enamel2
usemtl Enamel2
f 13//191 52//219 118//102 111//95
f 16//196 115//99 121//105 58//229
f 19//209 86//233 124//108 112//96
f 30//22 60//48 121//105 115//99
f 53//43 32//24 111//95 118//102
f 53//43 118//102 113//97 36//28
f 58//227 121//105 117//101 18//203
f 86//234 111//95 124//108
f 87//239 115//99 16//197
f 99//83 122//106 112//96 178//162 176//160
f 100//84 124//108 111//95 32//24
f 111//95 86//235 13//193
f 112//96 122//106 87//238 19//210
f 113//97 118//102 52//221 20//214
f 115//99 122//106 99//83 30//22
f 117//101 121//105 60//48 34//26
f 122//106 115//99 87//236
f 177//161 178//162 112//96 124//108 100//84
g cube1_EnamelF
usemtl EnamelF
f 5//183 88//242 110//94
f 10//189 114//98 89//248
f 18//204 117//101 120//104 57//224
f 20//211 51//215 119//103 113//97
f 29//21 101//85 192//176 114//98
f 31//23 110//94 193//177 98//82
f 33//25 98//82 193//177 194//178
f 34//26 59//47 120//104 117//101
f 36//28 113//97 119//103 54//44
f 57//223 120//104 114//98 10//187
f 110//94 119//103 51//218 5//185
f 114//98 120//104 59//47 29//21
f 119//103 110//94 31//23 54//44
f 194//178 192//176 101//85 33//25
g cube1_F
usemtl F
f 8//7 45//37 104//88 82//70
f 8//7 76//64 102//86 45//37
f 8//7 183//167 181//165 76//64
f 33//25 45//37 102//86 98//82
f 33//25 101//85 104//88 45//37
f 65//53 179//163 182//166 82//70
f 68//56 102//86 76//64
f 76//64 181//165 180//164 68//56
f 82//70 104//88 65//53
f 82//70 182//166 183//167 8//7
g cube1_I
usemtl I
f 38//30 108//92 186//170 188//172
f 38//30 127//111 128//112 108//92
f 63//51 129//113 131//115 72//60
f 107//91 126//110 127//111 38//30
f 107//91 131//115 129//113 126//110
f 107//91 187//171 184//168 131//115
f 128//112 130//114 133//117 108//92
f 131//115 184//168 72//60
f 133//117 185//169 186//170 108//92
f 188//172 187//171 107//91 38//30
f 189//173 185//169 133//117
f 190//174 189//173 133//117 130//114
g cube1_IF
usemtl IF
f 37//29 109//93 181//165 183//167
f 37//29 127//111 126//110 109//93
f 69//57 132//116 129//113 63//51
f 69//57 180//164 132//116
f 106//90 128//112 127//111 37//29
f 106//90 134//118 130//114 128//112
f 106//90 182//166 179//163 134//118
f 126//110 129//113 132//116 109//93
f 130//114 134//118 191//175 190//174
f 132//116 180//164 181//165 109//93
f 179//163 191//175 134//118
f 183//167 182//166 106//90 37//29
g cube1_L
usemtl L
f 15//12 188//172 186//170 85//73
f 35//27 177//161 141//125
f 35//27 178//162 177//161
f 49//41 103//87 79//67 15//12
f 49//41 141//125 174//158 103//87
f 66//54 105//89 85//73
f 67//55 184//168 187//171 79//67
f 79//67 103//87 67//55
f 79//67 187//171 188//172 15//12
f 85//73 105//89 49//41 15//12
f 85//73 186//170 185//169 66//54
f 100//84 140//124 174//158
f 100//84 174//158 141//125 177//161
f 103//87 174//158 140//124
f 105//89 66//54 139//123
f 105//89 175//159 141//125 49//41
f 139//123 175//159 105//89
f 140//124 67//55 103//87
f 141//125 176//160 35//27
f 175//159 139//123 99//83
f 176//160 141//125 175//159 99//83
f 176//160 178//162 35//27
g cube1_M
usemtl M
f 9//8 63//51 72//60 41//33
f 32//24 53//43 55//45 48//40
f 41//33 55//45 50//42 9//8
f 41//33 138//122 48//40 55//45
f 48//40 140//124 100//84 32//24
f 50//42 55//45 53//43 36//28
f 67//55 140//124 48//40 138//122
f 72//60 138//122 41//33
f 138//122 72//60 184//168 67//55
g cube1_MF
usemtl MF
f 9//8 39//31 69//57 63//51
f 9//8 50//42 56//46 39//31
f 31//23 98//82 102//86 47//39
f 36//28 54//44 56//46 50//42
f 39//31 136//120 69//57
f 47//39 56//46 54//44 31//23
f 56//46 47//39 136//120 39//31
f 68//56 180//164 69//57 136//120
f 102//86 68//56 136//120 47//39
g cube1_V
usemtl V
f 17//200 116//100 123//107 88//243
f 89//249 114//98 125//109
f 89//247 125//109 116//100 17//201
f 116//100 194//178 193//177 123//107
f 123//107 110//94 88//244
f 123//107 193//177 110//94
f 125//109 114//98 192//176
f 192//176 194//178 116//100 125//109
g cube1_default
usemtl default
f 196//180 197//181 198//182 195//179
